<svg width="200" height="120" viewBox="0 0 200 120" fill="none" xmlns="http://www.w3.org/2000/svg">
<path d="M24.6298 35.2632H17V85.6023H24.6298V35.2632Z" fill="#109AD6"/>
<path d="M61.7262 35.2632H54.0964V85.6023H61.7262V35.2632Z" fill="#109AD6"/>
<path d="M130.395 54.2937H122.765V85.6022H130.395V54.2937Z" fill="#109AD6"/>
<path d="M174.77 54.2937H167.141V85.6022H174.77V54.2937Z" fill="#109AD6"/>
<path d="M26.9102 56.837C26.9102 56.837 35.9432 50.435 43.7484 56.3985C44.3623 56.837 46.3794 58.8541 47.2563 61.3097C48.3087 64.0283 49.1857 68.4133 48.1333 74.3768C46.204 85.2515 38.7496 86.6546 33.3999 85.6899C28.138 84.6376 26.8225 82.7082 26.8225 82.7082C26.8225 82.7082 31.1198 83.2344 34.9785 82.0066C38.8373 80.7788 39.6265 78.8494 40.2404 74.8153C40.8543 70.7811 40.7666 62.099 38.1357 59.468C35.5047 56.837 27.0856 57.1878 27.0856 57.1878C27.0856 57.1878 26.7348 56.9247 26.9102 56.837Z" fill="#109AD6"/>
<path d="M64.0946 56.6619C64.0946 56.6619 72.5136 50.8738 80.3188 55.6972C82.9498 57.2758 83.8268 61.573 83.9145 64.7302L84.0022 85.5148L76.2847 85.6025L76.197 63.8532C76.197 63.8532 76.2847 58.4159 71.549 57.4512C66.8132 56.4865 64.0946 57.0127 64.0946 57.0127C64.0946 57.0127 63.9192 56.8373 64.0946 56.6619Z" fill="#109AD6"/>
<path d="M93.8243 56.7491C93.8243 56.7491 103.208 51.1364 111.627 55.6967C114.784 57.6261 115.486 61.5726 115.486 64.7297L115.574 85.5143L107.856 85.602L107.768 63.8527C107.768 63.8527 107.681 58.3277 102.068 57.4507C96.9815 56.6614 93.8243 57.1876 93.8243 57.1876C93.8243 57.1876 93.6489 56.9245 93.8243 56.7491Z" fill="#109AD6"/>
<path d="M131.798 60.9588C131.798 60.9588 134.342 54.1183 141.445 53.8552V60.9588H131.798Z" fill="#109AD6"/>
<path d="M153.548 45.3486V54.2939H162.142V57.6265H153.46V77.0079C153.46 77.0079 153.284 82.4452 157.933 82.0945C162.581 81.7437 162.493 82.1822 162.493 82.1822C162.493 82.1822 162.581 82.5329 162.23 82.8837C161.967 82.9714 158.108 87.0933 151.443 85.427C151.18 85.3393 148.461 84.55 147.321 82.7083C145.918 80.5159 145.918 77.271 145.83 77.1833C145.83 77.0079 145.83 49.2074 145.83 49.2074L152.583 45.3486H153.548Z" fill="#109AD6"/>
<path d="M98.6481 70.7809C98.9989 70.4301 99.7005 70.167 99.7882 70.0793C100.928 69.6408 102.682 69.29 105.05 69.6408C105.05 69.6408 106.103 69.6408 105.401 69.1146C104.699 68.5884 103.121 67.1853 98.9112 66.7468C94.7017 66.3083 89.2644 69.7285 89.1767 74.8151C89.089 76.7444 89.4398 78.7615 90.0537 80.6032C91.106 83.4096 93.2108 85.602 96.7188 85.8651C102.419 86.3036 105.576 83.7603 105.576 83.4095C105.576 83.0588 105.313 83.0588 105.138 83.0588C104.962 83.0588 98.5604 83.848 97.4204 80.1647C96.7188 77.7968 96.8065 74.9905 97.1573 73.2365C97.3327 72.4472 97.9465 71.3948 98.6481 70.7809Z" fill="#109AD6"/>
<path d="M167.141 35H174.858L167.228 43.7699L167.141 35Z" fill="#109AD6"/>
<path d="M182.4 40.3499V54.0309L170.386 40.3499H182.4Z" fill="#FCB525"/>
</svg>
