<svg width="200" height="120" viewBox="0 0 200 120" fill="none" xmlns="http://www.w3.org/2000/svg">
<path d="M46.68 27C28.62 27 14 41.62 14 59.68C14 77.74 28.62 92.36 46.68 92.36C64.74 92.36 79.36 77.74 79.36 59.68C79.36 41.62 64.74 27 46.68 27ZM46.422 40.674C53.302 40.674 58.978 46.092 59.322 52.886H53.13C52.786 49.446 49.948 46.78 46.422 46.78C42.896 46.78 40.058 49.446 39.714 52.886H33.522C33.866 46.092 39.456 40.674 46.422 40.674ZM59.236 76.536H53.044C52.7 73.096 49.862 70.43 46.336 70.43C42.81 70.43 39.972 73.096 39.628 76.536H33.436C33.694 71.548 36.79 67.334 41.176 65.356C36.79 63.464 33.78 59.164 33.522 54.176H39.714C40.058 57.53 42.982 60.196 46.422 60.196C49.862 60.196 52.7 57.616 53.13 54.176H59.322C59.064 59.164 55.968 63.464 51.582 65.356C55.882 67.334 58.978 71.548 59.236 76.536Z" fill="#88BC56" stroke="#88BC56" stroke-width="1.1349" stroke-miterlimit="45.3947"/>
<path d="M110.492 65.7859C110.492 69.5699 109.46 72.4939 107.482 74.6439C105.504 76.7939 102.666 77.9119 99.226 77.9119C95.7 77.9119 92.948 76.7939 90.97 74.6439C88.992 72.4939 87.96 69.4839 87.96 65.7859C87.96 62.0019 88.992 59.0779 90.97 56.9279C92.948 54.7779 95.7 53.6599 99.226 53.6599C102.752 53.6599 105.504 54.7779 107.482 56.9279C109.546 59.0779 110.492 62.0879 110.492 65.7859ZM104.472 65.7859C104.472 64.4099 104.3 63.2059 104.042 62.2599C103.784 61.3139 103.354 60.4539 102.924 59.8519C102.408 59.2499 101.892 58.7339 101.204 58.4759C100.602 58.2179 99.914 58.0459 99.226 58.0459C98.538 58.0459 97.85 58.1319 97.248 58.3899C96.646 58.6479 96.13 59.0779 95.528 59.7659C95.012 60.3679 94.668 61.1419 94.324 62.1739C94.066 63.2059 93.894 64.4099 93.894 65.7859C93.894 67.2479 94.066 68.3659 94.324 69.3119C94.582 70.2579 95.012 71.0319 95.442 71.7199C95.958 72.4079 96.474 72.8379 97.162 73.0959C97.764 73.3539 98.452 73.5259 99.14 73.5259C99.828 73.5259 100.516 73.3539 101.118 73.0959C101.72 72.8379 102.322 72.3219 102.752 71.7199C103.268 71.0319 103.612 70.2579 103.87 69.3119C104.3 68.4519 104.472 67.2479 104.472 65.7859Z" fill="#88BC56"/>
<path d="M129.756 77.4817H123.306L119.952 72.4937L116.512 77.4817H110.32L116.77 68.7097L110.406 59.9377H116.856L120.124 64.8397L123.478 59.9377H129.756L123.392 68.5377L129.756 77.4817Z" fill="#88BC56"/>
<path d="M141.796 57.272H141.366C141.194 57.186 140.85 57.1 140.42 57.014C139.99 56.928 139.56 56.842 139.13 56.842C138.012 56.842 137.238 57.014 136.894 57.444C136.464 57.874 136.292 58.562 136.292 59.68V59.852H140.678V63.636H136.55V77.396H131.046V63.636H128.81V59.852H131.046V59.336C131.046 57.186 131.648 55.638 132.766 54.52C133.884 53.488 135.604 52.886 137.84 52.886C138.614 52.886 139.388 52.886 140.076 52.972C140.764 53.058 141.366 53.144 141.882 53.23L141.796 57.272ZM151.256 75.59C150.912 75.934 150.568 76.192 150.224 76.45C149.966 76.708 149.536 76.966 149.02 77.224C148.504 77.482 148.074 77.654 147.558 77.74C147.128 77.912 146.44 77.912 145.58 77.912C144.032 77.912 142.742 77.396 141.71 76.364C140.678 75.332 140.162 74.042 140.162 72.408C140.162 71.118 140.42 70 140.936 69.226C141.452 68.452 142.226 67.764 143.172 67.334C144.118 66.818 145.322 66.56 146.698 66.302C148.16 66.13 149.622 65.958 151.084 65.872V65.786C151.084 64.754 150.74 64.066 150.052 63.722C149.364 63.378 148.246 63.12 146.87 63.12C146.268 63.12 145.494 63.206 144.634 63.464C143.774 63.722 142.914 64.066 142.14 64.41H141.71V60.196C142.226 60.024 143.086 59.852 144.29 59.68C145.494 59.508 146.698 59.336 147.902 59.336C150.912 59.336 153.148 59.852 154.524 60.884C155.9 61.916 156.588 63.464 156.588 65.528V77.482H151.084L151.256 75.59ZM151.256 72.838V69.14C150.31 69.226 149.622 69.312 149.02 69.398C148.418 69.484 147.902 69.57 147.386 69.828C146.87 70 146.526 70.258 146.268 70.602C146.01 70.946 145.838 71.376 145.838 71.978C145.838 72.838 146.096 73.354 146.526 73.698C146.956 74.042 147.644 74.128 148.504 74.128C149.02 74.128 149.45 74.042 149.966 73.784C150.396 73.612 150.826 73.268 151.256 72.838ZM180.496 77.482V68.71C180.496 67.85 180.496 67.076 180.41 66.474C180.41 65.872 180.324 65.356 180.152 65.012C179.98 64.668 179.722 64.324 179.464 64.152C179.206 63.98 178.69 63.894 178.088 63.894C177.658 63.894 177.228 63.98 176.884 64.152C176.54 64.324 176.024 64.582 175.508 64.926V77.396H170.004V68.624C170.004 67.764 170.004 67.076 169.918 66.474C169.918 65.872 169.746 65.356 169.66 65.012C169.488 64.668 169.23 64.324 168.972 64.152C168.628 63.98 168.198 63.894 167.596 63.894C167.166 63.894 166.736 63.98 166.306 64.238C165.876 64.41 165.446 64.668 165.016 65.012V77.482H159.512V62.26C159.512 62.26 160.458 61.314 161.404 60.884C162.866 60.196 163.726 59.852 165.446 59.594C166.478 59.508 168.714 59.594 170.004 60.368C171.466 61.228 172.842 62.948 172.842 62.948C172.842 62.948 173.874 61.916 174.39 61.486C175.25 60.884 176.712 59.766 178.776 59.766C180.84 59.766 182.646 60.454 183.936 61.314C184.538 61.744 185.226 62.346 185.656 63.12C186 63.808 186 64.84 186 66.13V77.568L180.496 77.482Z" fill="#88BC56"/>
</svg>
