<svg width="200" height="120" viewBox="0 0 200 120" fill="none" xmlns="http://www.w3.org/2000/svg">
<g clip-path="url(#clip0_1624_107)">
<path d="M176.4 39.2C176.2 40.2 176.2 42.5 177.5 42.2C179.3 41.8 179.1 41.6 180.1 40.7C180.8 40.1 182.4 41.7 180.1 44.3C178.9 45.7 178.6 46.1 179.2 46.9C179.9 47.7 181.7 48.1 181.7 50.6C181.7 52.9 184.6 51.2 185.3 50.3C186 49.4 186.5 45.5 188.5 48.4C189.9 50.4 187.5 54.8 190.4 55.2C192.8 55.6 193.2 58.2 193.2 58.9V59.1C199.2 53.3 195.2 45.9 195.1 45C194.8 43.4 195.7 44 196.8 45C192.4 36.7 183.6 31 173.6 31C171.9 31 170.2 31.2 168.5 31.5C173.8 31.7 177.4 33.8 176.4 39.2ZM190.2 71C188.6 71.6 187.9 70.6 186.7 71.8C185.4 73.1 189.6 75.6 181.8 73.8C178.3 73 178.8 76.8 174.9 74.8C173.8 72.2 173.8 70.7 174.7 69.1C175.8 67.2 176.2 67.9 175.5 65.8C175.2 65 175.5 64.6 175.9 63.5C176.3 62.4 175.8 60.8 174.2 60.9C172.1 61 172.3 62 171 62.8C170.1 63.4 168.7 60.4 171.7 57.7C173.4 56.2 173.8 55.8 173.2 54.7C172.6 53.5 171.6 54 171.1 52.6C170.8 51.6 171.3 49.6 169.8 49.2C168.1 48.7 166.8 51.1 165.8 52C164.7 53.1 163.4 55.1 162.8 53.5C161.7 50.7 166.7 46.6 163.6 45.5C160.7 44.5 159.8 41.4 159.8 41.4C151.9 47.3 155.6 52.4 155 53.3C154.3 54.2 153.1 52.2 152 53.2C151.2 53.9 150.4 58.7 155.5 61.8C157.4 63 158 63.2 157.6 63.9C157.2 64.5 155.7 64 155.7 65.3C155.8 67.8 159.8 67.1 160.6 70.3C161.3 73.3 173.9 75.1 173.9 75.1C173.9 75.1 174 75.1 174.1 75.1L174.7 75.4C174.9 76.2 175.6 78 177.4 78.9C180.3 80.4 177.2 79.7 177.6 80.7C177.8 81.2 179.9 82.6 183.5 81.8C188.6 79.7 192.8 76 195.7 71.4C192.9 69 192.6 69.5 190.2 71Z" fill="#FFFFFE"/>
<path d="M174.3 75.1001C174.2 75.1001 174.1 75.0001 174.1 75.1001C174.1 75.1001 161.5 73.3001 160.8 70.3001C160.1 67.1001 156 67.9001 155.9 65.3001C155.9 64.0001 157.4 64.5001 157.8 63.9001C158.3 63.2001 157.6 62.9001 155.7 61.8001C150.6 58.8001 151.4 54 152.2 53.2C153.3 52.2 154.5 54.3001 155.2 53.3001C155.9 52.4001 152.1 47.2001 160 41.4C160 41.4 160.9 44.4 163.8 45.5C166.9 46.6 161.9 50.7001 163 53.5001C163.6 55.1001 164.8 53.1 166 52.0001C167 51.1 168.3 48.7 170 49.2C171.5 49.7 171 51.6 171.3 52.6C171.7 53.9 172.8 53.5 173.4 54.7C174 55.8 173.6 56.3 171.9 57.7C168.8 60.4 170.3 63.3001 171.2 62.8001C172.5 61.9001 172.3 61.0001 174.4 60.9001C176 60.8001 176.5 62.4001 176.1 63.5001C175.7 64.6001 175.4 65.0001 175.7 65.8001C176.4 67.9001 176 67.2001 174.9 69.1001C174 70.7001 174 72.2001 175.1 74.8001C179 76.8001 178.5 73.0001 182 73.8001C189.8 75.6001 185.5 73.0001 186.9 71.8001C188.1 70.6001 188.8 71.7001 190.4 71.0001C192.8 69.5001 193 69.0001 196.2 71.5001C198.7 67.5001 200.2 62.7001 200.2 57.5001C200.2 53.0001 199.1 48.8 197.1 45.2C196 44.2 195.1 43.5 195.4 45.2C195.5 46.1 199.6 53.6001 193.5 59.3001V59.1C193.4 58.4001 193 55.7001 190.7 55.4001C187.8 55.0001 190.2 50.6 188.8 48.6C186.8 45.7 186.3 49.7001 185.6 50.5C184.9 51.4001 182 53.0001 182 50.8001C182 48.2001 180.2 47.9 179.5 47.1C178.8 46.3 179.1 45.9 180.4 44.5C182.7 41.9 181 40.3 180.4 40.9C179.4 41.8 179.6 42 177.8 42.4001C176.4 42.7001 176.5 40.3 176.7 39.4C177.7 33.9 174 31.9 168.8 31.8C156.7 34.2 147.5 44.9 147.5 57.7C147.5 72.3001 159.3 84.1001 173.9 84.1001C177.5 84.1001 180.9 83.4001 184 82.1001C180.3 83.0001 178.3 81.6001 178.1 81.0001C177.7 79.9001 180.8 80.7001 177.9 79.2001C176.1 78.3001 175.4 76.5001 175.2 75.7001L174.3 75.1001Z" fill="#4AA241"/>
<path d="M175.8 75.8999C175.8 75.8999 158.5 69.1999 157.9 52.0999C157.9 52.0999 159.6 65.0999 175.8 75.8999ZM175.7 31.0999C176.2 31.1999 179.9 31.6999 183.9 34.1999C185.4 35.5999 187.4 38.8999 184.2 45.7999C184.2 45.7999 188.3 40.2999 187.3 36.8999C190.7 40.3999 193.6 45.7999 193.7 54.4999C193.7 54.5999 197.5 32.7999 175.7 31.0999ZM193 74.1999C191.7 74.9999 189.5 76.8999 186 75.7999C186 75.7999 187.4 76.8999 189.6 76.7999C186.8 78.2999 183.7 78.5999 178.9 77.3999C178.9 77.3999 188.7 83.1999 195.5 72.0999C195.5 72.1999 193.8 73.6999 193 74.1999Z" fill="#4AA241"/>
<path d="M8.40012 51C8.40012 52.9 8.80012 53.4001 10.1001 53.4001V53.9001H4.50012V53.4001C5.60012 53.4001 6.30012 53.1001 6.30012 50.9001V38.8H4.00012C1.90012 38.8 0.900122 39.4 0.800122 41.1H0.400122V37.5H0.900122C1.10012 37.7 1.40012 37.8 1.80012 37.9C2.20012 38 2.70012 38 3.30012 38H11.6001C13.0001 38 13.6001 37.8 14.1001 37.4H14.6001V41H14.3001C14.0001 39.7 13.5001 38.7 11.0001 38.7H8.50012L8.40012 51ZM25.5001 51.5C25.5001 53 25.8001 53.4001 27.1001 53.4001V53.9001H22.0001V53.4001C23.3001 53.4001 23.6001 53.1001 23.6001 51.8001V47C23.6001 45.7 22.8001 44.9001 21.6001 44.9001C20.5001 44.9001 19.7001 45.4 18.8001 46.7V52C18.8001 53 19.2001 53.3001 20.4001 53.3001V53.8001H15.1001V53.3001C16.6001 53.3001 16.8001 53.0001 16.8001 51.4001V38.8C16.8001 37.5 16.4001 37.3 15.1001 37.3V36.8L18.2001 36.5H18.7001V45.7C19.9001 44.3 20.9001 43.7 22.1001 43.7C23.7001 43.7 25.4001 44.8 25.4001 47.1L25.5001 51.5ZM35.4001 47.4001C35.5001 45.2 34.0001 44.4 32.8001 44.4C31.2001 44.4 30.2001 45.6 30.1001 47.4001H35.4001ZM30.0001 47.9001C29.9001 52.3001 32.6001 53.4001 33.9001 53.4001C35.3001 53.4001 35.9001 52.9001 37.3001 51.4001V52.1C36.1001 53.6 35.0001 54.2 33.3001 54.2C30.2001 54.2 28.0001 52.1 28.0001 49.1C28.0001 46.2 30.2001 43.8001 32.9001 43.8001C35.2001 43.8001 37.3001 45.6 37.1001 47.9001H30.0001ZM62.6001 59.8001H61.9001L44.2001 38H44.1001V55.6C44.1001 58.1 45.1001 59.1 47.4001 59.1V59.8001H39.8001V59.0001C41.9001 59.0001 42.9001 58.3 42.9001 54.7V40.1C42.9001 37.3 42.2001 35.7 39.2001 35.5V34.8H45.6001L61.3001 54.3001H61.4001V39.6C61.4001 36.3 60.5001 35.5 58.3001 35.5V34.8H65.9001V35.5C63.5001 35.5 62.7001 36.5 62.7001 39.4L62.6001 59.8001ZM85.7001 44.3001H91.1001V45.4001H85.7001V55.4001C85.7001 57.5001 86.8001 58.6 88.5001 58.6C89.6001 58.6 90.5001 58.2001 91.4001 57.1L91.9001 57.7C90.5001 59.4 89.0001 60.3001 87.2001 60.3001C84.6001 60.3001 82.7001 58.5001 82.7001 55.8001V45.4001H79.8001V44.7C81.9001 43.7 83.6001 41.8 85.0001 39.1H85.7001V44.3001ZM108.7 56.9001C108.7 58.6001 109.3 59.1 111.4 59.1V59.8001L105.8 60.1V57.3001H105.7C104.2 59.3001 102.4 60.3001 100.3 60.3001C97.2001 60.3001 95.2001 58 95.2001 55.1V47.2C95.2001 45.7 94.7001 45.1 92.4001 45.1V44.4L97.4001 43.9H98.1001V55.0001C98.1001 57.2001 99.5001 58.5001 101.6 58.5001C103.1 58.5001 104.4 57.7001 105.7 56.0001V47.7C105.7 45.6 105.3 45.3001 102.7 45.3001V44.6L107.9 44.1H108.6L108.7 56.9001ZM118.3 56.9001C118.3 58.6001 118.8 59.1 120.9 59.1V59.8001H112.7V59.0001C115.1 59.0001 115.3 58.4001 115.3 56.0001V47.6C115.3 45.3 114.7 45.1 112.1 45.1V44.4L117.5 43.9H118.2V47.3001C121.1 44.8001 122.4 43.9 123.5 43.9C124.4 43.9 125.6 44.4 126.3 45.1L125.1 47.9001C123.8 47.2001 122.5 46.5 121.4 46.5C120.4 46.5 119.5 47.0001 118.1 48.4001L118.3 56.9001ZM138.2 49.6C138.3 46.2 136 44.8001 134 44.8001C131.4 44.8001 129.9 46.7 129.7 49.6H138.2ZM129.8 50.3001C129.7 57.3001 133.9 59.0001 136 59.0001C138.1 59.0001 139.2 58.3001 141.5 55.8001V56.9001C139.6 59.3001 137.8 60.2 135.1 60.2C130.2 60.2 126.7 56.8 126.7 52.2C126.7 47.5 130.1 43.8001 134.5 43.8001C138.1 43.8001 141.4 46.7001 141.2 50.3001H129.8ZM15.9001 65.9001C15.0001 62.4001 13.1001 60.8001 9.80012 60.8001C5.30012 60.8001 2.90012 64.4 2.90012 69.2001C2.90012 74.8001 5.80012 78.5001 10.0001 78.5001C12.9001 78.5001 15.1001 77.1001 16.5001 74.4001L17.0001 74.9001C15.8001 77.9001 12.8001 79.7001 9.20012 79.7001C4.70012 79.7001 0.00012207 76.6001 0.00012207 70.4001C0.00012207 64.4001 4.10012 60.1 9.70012 60.1C12.1001 60.1 13.8001 60.9001 14.9001 60.9001C15.4001 60.9001 15.7001 60.7001 15.9001 60.3001H16.4001V65.9001H15.9001ZM24.6001 68.1001C22.1001 68.1001 20.7001 70.3001 20.7001 73.6001C20.7001 76.6001 21.9001 79.1001 24.6001 79.1001C27.3001 79.1001 28.5001 76.4001 28.5001 73.6001C28.5001 70.7001 27.3001 68.1001 24.6001 68.1001ZM24.6001 79.7001C21.0001 79.7001 18.3001 77.1001 18.3001 73.6001C18.3001 70.1001 21.0001 67.4001 24.6001 67.4001C28.2001 67.4001 30.9001 70.0001 30.9001 73.6001C31.0001 77.1001 28.2001 79.7001 24.6001 79.7001ZM44.4001 76.8001C44.4001 78.3001 44.7001 78.8001 46.4001 78.8001V79.4001H40.2001V78.8001C41.8001 78.8001 42.2001 78.4001 42.2001 77.4001V71.3001C42.2001 69.4001 40.9001 68.7001 39.6001 68.7001C38.5001 68.7001 37.4001 69.4001 36.3001 71.0001V76.7001C36.3001 78.5001 36.5001 78.9001 38.3001 78.9001V79.5001H32.2001V78.9001C33.7001 78.9001 34.1001 78.8001 34.1001 76.7001V70.0001C34.1001 68.6001 33.7001 68.3001 32.2001 68.3001V67.7001L35.8001 67.3001H36.4001V69.6001C37.8001 68.0001 39.1001 67.3001 40.6001 67.3001C42.5001 67.3001 44.5001 68.7001 44.5001 71.5001V76.8001M54.0001 71.0001C53.8001 69.1001 52.5001 68.1001 51.1001 68.1001C50.0001 68.1001 49.2001 68.7001 49.2001 69.7001C49.2001 72.6001 55.3001 71.9001 55.3001 76.2001C55.3001 78.1001 53.6001 79.8001 51.6001 79.8001C50.3001 79.8001 49.2001 78.9001 48.7001 78.9001C48.3001 78.9001 48.0001 79.3001 47.9001 79.7001H47.3001V75.7001H47.9001C48.4001 78.1001 50.2001 79.1001 51.6001 79.1001C52.7001 79.1001 53.6001 78.2001 53.6001 77.1001C53.6001 73.9001 47.4001 74.7001 47.4001 70.8001C47.4001 69.0001 49.0001 67.5001 50.9001 67.5001C52.1001 67.5001 52.5001 68.1001 53.3001 68.1001C53.6001 68.1001 53.8001 67.9001 54.0001 67.5001H54.6001V71.1001L54.0001 71.0001ZM65.1001 71.7001C65.2001 69.1001 63.5001 68.1001 62.0001 68.1001C60.1001 68.1001 58.9001 69.5 58.8001 71.7001H65.1001ZM58.8001 72.3001C58.7001 77.5001 61.8001 78.8001 63.4001 78.8001C65.0001 78.8001 65.8001 78.2001 67.5001 76.4001V77.2001C66.1001 79.0001 64.7001 79.7001 62.7001 79.7001C59.1001 79.7001 56.4001 77.2001 56.4001 73.7001C56.4001 70.2001 59.0001 67.5001 62.2001 67.5001C64.9001 67.5001 67.4001 69.7001 67.2001 72.3001H58.8001ZM73.1001 77.1001C73.1001 78.4001 73.5001 78.7001 75.0001 78.7001V79.3001H68.9001V78.7001C70.7001 78.7001 70.9001 78.2001 70.9001 76.5001V70.2001C70.9001 68.5 70.5001 68.3001 68.5001 68.3001V67.7001L72.6001 67.3001H73.2001V69.8001C75.4001 67.9001 76.4001 67.3001 77.2001 67.3001C77.9001 67.3001 78.7001 67.7001 79.3001 68.2001L78.4001 70.3001C77.4001 69.8001 76.4001 69.3001 75.6001 69.3001C74.8001 69.3001 74.2001 69.7001 73.1001 70.7001V77.1001ZM86.9001 76.5001L89.2001 70.6001C89.8001 69.1001 89.8001 68.4001 88.1001 68.3001V67.7001H92.4001V68.3001C91.1001 68.4001 90.7001 68.7001 90.2001 70.0001L86.5001 79.6001H85.9001L82.2001 70.5001C81.4001 68.6001 81.1001 68.4001 79.7001 68.3001V67.7001H85.3001V68.3001C84.2001 68.4001 83.9001 69.0001 84.4001 70.3001L86.9001 76.5001ZM115.4 76.8001C115.4 78.3001 115.7 78.8001 117.4 78.8001V79.4001H111.2V78.8001C112.8 78.8001 113.2 78.4001 113.2 77.4001V71.3001C113.2 69.4001 111.9 68.7001 110.6 68.7001C109.5 68.7001 108.4 69.4001 107.3 71.0001V76.7001C107.3 78.5001 107.5 78.9001 109.3 78.9001V79.5001H103.2V78.9001C104.7 78.9001 105.1 78.8001 105.1 76.7001V70.0001C105.1 68.6001 104.7 68.3001 103.2 68.3001V67.7001L106.8 67.3001H107.4V69.6001C108.8 68.0001 110.1 67.3001 111.6 67.3001C113.5 67.3001 115.5 68.7001 115.5 71.5001V76.8001M128.2 71.5001H127.7C127.2 69.4001 125.7 68.1001 123.8 68.1001C121.5 68.1001 119.9 70.1001 119.9 72.9001C119.9 76.1001 121.9 78.7001 124.3 78.7001C125.7 78.7001 127.4 77.9001 128.6 76.3001V77.2001C127.4 78.9001 125.6 79.8001 123.5 79.8001C120.1 79.8001 117.7 77.4001 117.7 73.9001C117.7 70.3001 120.4 67.5001 123.7 67.5001C125.4 67.5001 126.4 68.2001 127 68.2001C127.3 68.2001 127.6 68.0001 127.8 67.5001H128.4L128.2 71.5001ZM136.6 76.7001L138.6 70.6001C139.1 69.2001 139 68.5001 137.7 68.4001V67.8001H141.8V68.4001C140.6 68.4001 139.8 69.2001 139.1 71.1001L134.5 84.8001C133.6 87.5001 132.1 89.0001 130.7 89.0001C130.2 89.0001 129.9 88.9001 129.3 88.5001L130.1 86.5001C130.6 86.7001 130.8 86.8001 131.2 86.8001C132.6 86.8001 133.4 86.0001 134.1 84.0001L135.6 79.8001L131.4 70.2001C130.8 68.9001 130.4 68.5001 129 68.5001V67.9001H134.6V68.5001C133.7 68.6001 133.4 69.3001 133.8 70.3001L136.6 76.7001ZM74.7001 56.6C74.1001 57.9 72.4001 58.6 71.5001 58.6C70.2001 58.6 69.1001 57.3001 69.1001 55.8001C69.1001 52.7001 71.7001 52.7001 74.7001 51.4001V56.6ZM77.7001 56.4001V49.5C77.7001 45.3 74.7001 43.8001 72.1001 43.8001C69.3001 43.8001 67.0001 45.7 66.4001 48.6L67.2001 48.8001C67.9001 46.6001 69.6001 45.5 71.3001 45.5C73.5001 45.5 74.8001 47.1001 74.8001 49.3001V50.4001C72.3001 51.9001 66.2001 51.7 66.2001 56.1C66.2001 58.4 68.2001 60.2 70.6001 60.2C72.2001 60.2 73.4001 59.6001 74.9001 57.9001V59.8001H80.3001V59.0001C78.1001 59.1001 77.7001 58.4001 77.7001 56.4001ZM98.5001 77.0001C98.0001 78.0001 96.8001 78.5001 96.1001 78.5001C95.2001 78.5001 94.4001 77.6001 94.4001 76.4001C94.4001 74.1001 96.3001 74.1001 98.5001 73.2001V77.0001ZM100.7 76.8001V71.7001C100.7 68.6001 98.5001 67.5001 96.5001 67.5001C94.4001 67.5001 92.7001 68.9001 92.3001 71.0001L92.9001 71.2001C93.4001 69.5 94.6001 68.7001 95.9001 68.7001C97.5001 68.7001 98.5001 69.9001 98.5001 71.5001V72.3001C96.6001 73.4001 92.1001 73.3001 92.1001 76.5001C92.1001 78.2001 93.6001 79.5001 95.4001 79.5001C96.6001 79.5001 97.5001 79.0001 98.6001 77.8001V79.2001H102.6V78.6001C101 78.8001 100.7 78.3001 100.7 76.8001Z" fill="black"/>
</g>
<defs>
<clipPath id="clip0_1624_107">
<rect width="200" height="120" fill="white"/>
</clipPath>
</defs>
</svg>
