<svg width="200" height="120" viewBox="0 0 200 120" fill="none" xmlns="http://www.w3.org/2000/svg">
<g clip-path="url(#clip0_1560_230)">
<path d="M174.3 75C174.2 75 174.1 74.9 174.1 75C174.1 75 161.5 73.2 160.8 70.2C160.1 67 156 67.8 155.9 65.2C155.9 63.9 157.4 64.4 157.8 63.8C158.3 63.1 157.6 62.8 155.7 61.7C150.6 58.7 151.4 53.9 152.2 53.1C153.3 52.0999 154.5 54.2 155.2 53.2C155.9 52.3 152.1 47.1 160 41.3C160 41.3 160.9 44.3 163.8 45.4C166.9 46.5 161.9 50.6 163 53.4C163.6 55 164.8 53 166 51.9C167 51 168.3 48.5999 170 49.0999C171.5 49.5999 171 51.5 171.3 52.5C171.7 53.8 172.8 53.4 173.4 54.6C174 55.7 173.6 56.2 171.9 57.6C168.8 60.3 170.3 63.2 171.2 62.7C172.5 61.8 172.3 60.9 174.4 60.8C176 60.7 176.5 62.3 176.1 63.4C175.7 64.5 175.4 64.9 175.7 65.7C176.4 67.8 176 67.1 174.9 69C174 70.6 174 72.1 175.1 74.7C179 76.7 178.5 72.9 182 73.7C189.8 75.5 185.5 72.9 186.9 71.7C188.1 70.5 188.8 71.6 190.4 70.9C192.8 69.4 193 68.9 196.2 71.4C198.7 67.4 200.2 62.6 200.2 57.4C200.2 52.9 199.1 48.6999 197.1 45.0999C196 44.0999 195.1 43.3999 195.4 45.0999C195.5 45.9999 199.6 53.5 193.5 59.2V59C193.4 58.3 193 55.6 190.7 55.3C187.8 54.9 190.2 50.5 188.8 48.5C186.8 45.5999 186.3 49.6 185.6 50.4C184.9 51.3 182 52.9 182 50.7C182 48.1 180.2 47.8 179.5 47C178.8 46.2 179.1 45.8 180.4 44.4C182.7 41.8 181 40.2 180.4 40.8C179.4 41.7 179.6 41.9 177.8 42.3C176.4 42.6 176.5 40.2 176.7 39.3C177.7 33.8 174 31.8 168.8 31.7C156.7 34.1 147.5 44.7999 147.5 57.6C147.5 72.2 159.3 84 173.9 84C177.5 84 180.9 83.3 184 82C180.3 82.9 178.3 81.5 178.1 80.9C177.7 79.8 180.8 80.6 177.9 79.1C176.1 78.2 175.4 76.4 175.2 75.6L174.3 75Z" fill="#4AA241"/>
<path d="M175.8 75.8C175.8 75.8 158.5 69.1 157.9 52C157.9 52 159.6 65 175.8 75.8ZM175.7 31C176.2 31.1 179.9 31.6 183.9 34.1C185.4 35.5 187.4 38.8 184.2 45.7C184.2 45.7 188.3 40.2 187.3 36.8C190.7 40.3 193.6 45.7 193.7 54.4C193.7 54.5 197.5 32.7 175.7 31ZM193 74.1C191.7 74.9 189.5 76.8 186 75.7C186 75.7 187.4 76.8 189.6 76.7C186.8 78.2 183.7 78.5 178.9 77.3C178.9 77.3 188.7 83.1 195.5 72C195.5 72.1 193.8 73.6 193 74.1Z" fill="#4AA241"/>
<path d="M8.4 50.9C8.4 52.8 8.8 53.3 10.1 53.3V53.8H4.5V53.3C5.6 53.3 6.3 53 6.3 50.8V38.7H4C1.9 38.7 0.9 39.2999 0.8 40.9999H0.4V37.3999H0.9C1.1 37.5999 1.4 37.7 1.8 37.8C2.2 37.9 2.7 37.8999 3.3 37.8999H11.6C13 37.8999 13.6 37.7 14.1 37.3H14.6V40.8999H14.3C14 39.5999 13.5 38.5999 11 38.5999H8.5L8.4 50.9ZM25.5 51.4C25.5 52.9 25.8 53.3 27.1 53.3V53.8H22V53.3C23.3 53.3 23.6 53 23.6 51.7V46.9C23.6 45.6 22.8 44.8 21.6 44.8C20.5 44.8 19.7 45.2999 18.8 46.5999V51.9C18.8 52.9 19.2 53.2 20.4 53.2V53.7H15.1V53.2C16.6 53.2 16.8 52.9 16.8 51.3V38.7C16.8 37.4 16.4 37.2 15.1 37.2V36.7L18.2 36.3999H18.7V45.5999C19.9 44.1999 20.9 43.5999 22.1 43.5999C23.7 43.5999 25.4 44.6999 25.4 46.9999L25.5 51.4ZM35.4 47.3C35.5 45.1 34 44.3 32.8 44.3C31.2 44.3 30.2 45.5 30.1 47.3H35.4ZM30 47.8C29.9 52.2 32.6 53.3 33.9 53.3C35.3 53.3 35.9 52.8 37.3 51.3V52C36.1 53.5 35 54.0999 33.3 54.0999C30.2 54.0999 28 52 28 49C28 46.0999 30.2 43.7 32.9 43.7C35.2 43.7 37.3 45.5 37.1 47.8H30ZM62.6 59.7H61.9L44.2 37.8999H44.1V55.5C44.1 58 45.1 59 47.4 59V59.7H39.8V58.9C41.9 58.9 42.9 58.2 42.9 54.5999V39.9999C42.9 37.1999 42.2 35.5999 39.2 35.3999V34.7H45.6L61.3 54.2H61.4V39.4999C61.4 36.1999 60.5 35.3999 58.3 35.3999V34.7H65.9V35.3999C63.5 35.3999 62.7 36.3999 62.7 39.3L62.6 59.7ZM85.7 44.2H91.1V45.3H85.7V55.3C85.7 57.4 86.8 58.5 88.5 58.5C89.6 58.5 90.5 58.1 91.4 57L91.9 57.6C90.5 59.3 89 60.2 87.2 60.2C84.6 60.2 82.7 58.4 82.7 55.7V45.3H79.8V44.5999C81.9 43.5999 83.6 41.6999 85 38.9999H85.7V44.2ZM108.7 56.8C108.7 58.5 109.3 59 111.4 59V59.7L105.8 60V57.2H105.7C104.2 59.2 102.4 60.2 100.3 60.2C97.2 60.2 95.2 57.9 95.2 55V47.0999C95.2 45.5999 94.7 44.9999 92.4 44.9999V44.3L97.4 43.8H98.1V54.9C98.1 57.1 99.5 58.4 101.6 58.4C103.1 58.4 104.4 57.6 105.7 55.9V47.5999C105.7 45.4999 105.3 45.2 102.7 45.2V44.4999L107.9 43.9999H108.6L108.7 56.8ZM118.3 56.8C118.3 58.5 118.8 59 120.9 59V59.7H112.7V58.9C115.1 58.9 115.3 58.3 115.3 55.9V47.4999C115.3 45.1999 114.7 44.9999 112.1 44.9999V44.3L117.5 43.8H118.2V47.2C121.1 44.7 122.4 43.8 123.5 43.8C124.4 43.8 125.6 44.2999 126.3 44.9999L125.1 47.8C123.8 47.1 122.5 46.4 121.4 46.4C120.4 46.4 119.5 46.9 118.1 48.3L118.3 56.8ZM138.2 49.5C138.3 46.0999 136 44.7 134 44.7C131.4 44.7 129.9 46.5999 129.7 49.5H138.2ZM129.8 50.2C129.7 57.2 133.9 58.9 136 58.9C138.1 58.9 139.2 58.2 141.5 55.7V56.8C139.6 59.2 137.8 60.1 135.1 60.1C130.2 60.1 126.7 56.7 126.7 52.0999C126.7 47.3999 130.1 43.7 134.5 43.7C138.1 43.7 141.4 46.6 141.2 50.2H129.8ZM15.9 65.8C15 62.3 13.1 60.7 9.8 60.7C5.3 60.7 2.9 64.3 2.9 69.1C2.9 74.7 5.8 78.4 10 78.4C12.9 78.4 15.1 77 16.5 74.3L17 74.8C15.8 77.8 12.8 79.6 9.2 79.6C4.7 79.6 0 76.5 0 70.3C0 64.3 4.1 60 9.7 60C12.1 60 13.8 60.8 14.9 60.8C15.4 60.8 15.7 60.6 15.9 60.2H16.4V65.8H15.9ZM24.6 68C22.1 68 20.7 70.2 20.7 73.5C20.7 76.5 21.9 79 24.6 79C27.3 79 28.5 76.3 28.5 73.5C28.5 70.6 27.3 68 24.6 68ZM24.6 79.6C21 79.6 18.3 77 18.3 73.5C18.3 70 21 67.3 24.6 67.3C28.2 67.3 30.9 69.9 30.9 73.5C31 77 28.2 79.6 24.6 79.6ZM44.4 76.7C44.4 78.2 44.7 78.7 46.4 78.7V79.3H40.2V78.7C41.8 78.7 42.2 78.3 42.2 77.3V71.2C42.2 69.3 40.9 68.6 39.6 68.6C38.5 68.6 37.4 69.3 36.3 70.9V76.6C36.3 78.4 36.5 78.8 38.3 78.8V79.4H32.2V78.8C33.7 78.8 34.1 78.7 34.1 76.6V69.9C34.1 68.5 33.7 68.2 32.2 68.2V67.6L35.8 67.2H36.4V69.5C37.8 67.9 39.1 67.2 40.6 67.2C42.5 67.2 44.5 68.6 44.5 71.4V76.7M54 70.9C53.8 69 52.5 68 51.1 68C50 68 49.2 68.6 49.2 69.6C49.2 72.5 55.3 71.8 55.3 76.1C55.3 78 53.6 79.7 51.6 79.7C50.3 79.7 49.2 78.8 48.7 78.8C48.3 78.8 48 79.2 47.9 79.6H47.3V75.6H47.9C48.4 78 50.2 79 51.6 79C52.7 79 53.6 78.1 53.6 77C53.6 73.8 47.4 74.6 47.4 70.7C47.4 68.9 49 67.4 50.9 67.4C52.1 67.4 52.5 68 53.3 68C53.6 68 53.8 67.8 54 67.4H54.6V71L54 70.9ZM65.1 71.6C65.2 69 63.5 68 62 68C60.1 68 58.9 69.4 58.8 71.6H65.1ZM58.8 72.2C58.7 77.4 61.8 78.7 63.4 78.7C65 78.7 65.8 78.1 67.5 76.3V77.1C66.1 78.9 64.7 79.6 62.7 79.6C59.1 79.6 56.4 77.1 56.4 73.6C56.4 70.1 59 67.4 62.2 67.4C64.9 67.4 67.4 69.6 67.2 72.2H58.8ZM73.1 77C73.1 78.3 73.5 78.6 75 78.6V79.2H68.9V78.6C70.7 78.6 70.9 78.1 70.9 76.4V70.1C70.9 68.4 70.5 68.2 68.5 68.2V67.6L72.6 67.2H73.2V69.7C75.4 67.8 76.4 67.2 77.2 67.2C77.9 67.2 78.7 67.6 79.3 68.1L78.4 70.2C77.4 69.7 76.4 69.2 75.6 69.2C74.8 69.2 74.2 69.6 73.1 70.6V77ZM86.9 76.4L89.2 70.5C89.8 69 89.8 68.3 88.1 68.2V67.6H92.4V68.2C91.1 68.3 90.7 68.6 90.2 69.9L86.5 79.5H85.9L82.2 70.4C81.4 68.5 81.1 68.3 79.7 68.2V67.6H85.3V68.2C84.2 68.3 83.9 68.9 84.4 70.2L86.9 76.4ZM115.4 76.7C115.4 78.2 115.7 78.7 117.4 78.7V79.3H111.2V78.7C112.8 78.7 113.2 78.3 113.2 77.3V71.2C113.2 69.3 111.9 68.6 110.6 68.6C109.5 68.6 108.4 69.3 107.3 70.9V76.6C107.3 78.4 107.5 78.8 109.3 78.8V79.4H103.2V78.8C104.7 78.8 105.1 78.7 105.1 76.6V69.9C105.1 68.5 104.7 68.2 103.2 68.2V67.6L106.8 67.2H107.4V69.5C108.8 67.9 110.1 67.2 111.6 67.2C113.5 67.2 115.5 68.6 115.5 71.4V76.7M128.2 71.4H127.7C127.2 69.3 125.7 68 123.8 68C121.5 68 119.9 70 119.9 72.8C119.9 76 121.9 78.6 124.3 78.6C125.7 78.6 127.4 77.8 128.6 76.2V77.1C127.4 78.8 125.6 79.7 123.5 79.7C120.1 79.7 117.7 77.3 117.7 73.8C117.7 70.2 120.4 67.4 123.7 67.4C125.4 67.4 126.4 68.1 127 68.1C127.3 68.1 127.6 67.9 127.8 67.4H128.4L128.2 71.4ZM136.6 76.6L138.6 70.5C139.1 69.1 139 68.4 137.7 68.3V67.7H141.8V68.3C140.6 68.3 139.8 69.1 139.1 71L134.5 84.7C133.6 87.4 132.1 88.9 130.7 88.9C130.2 88.9 129.9 88.8 129.3 88.4L130.1 86.4C130.6 86.6 130.8 86.7 131.2 86.7C132.6 86.7 133.4 85.9 134.1 83.9L135.6 79.7L131.4 70.1C130.8 68.8 130.4 68.4 129 68.4V67.8H134.6V68.4C133.7 68.5 133.4 69.2 133.8 70.2L136.6 76.6ZM74.7 56.5C74.1 57.8 72.4 58.5 71.5 58.5C70.2 58.5 69.1 57.2 69.1 55.7C69.1 52.6 71.7 52.6 74.7 51.3V56.5ZM77.7 56.3V49.4C77.7 45.2 74.7 43.7 72.1 43.7C69.3 43.7 67 45.5999 66.4 48.4999L67.2 48.7C67.9 46.5 69.6 45.4 71.3 45.4C73.5 45.4 74.8 47 74.8 49.2V50.3C72.3 51.8 66.2 51.6 66.2 56C66.2 58.3 68.2 60.1 70.6 60.1C72.2 60.1 73.4 59.5 74.9 57.8V59.7H80.3V58.9C78.1 59 77.7 58.3 77.7 56.3ZM98.5 76.9C98 77.9 96.8 78.4 96.1 78.4C95.2 78.4 94.4 77.5 94.4 76.3C94.4 74 96.3 74 98.5 73.1V76.9ZM100.7 76.7V71.6C100.7 68.5 98.5 67.4 96.5 67.4C94.4 67.4 92.7 68.8 92.3 70.9L92.9 71.1C93.4 69.4 94.6 68.6 95.9 68.6C97.5 68.6 98.5 69.8 98.5 71.4V72.2C96.6 73.3 92.1 73.2 92.1 76.4C92.1 78.1 93.6 79.4 95.4 79.4C96.6 79.4 97.5 78.9 98.6 77.7V79.1H102.6V78.5C101 78.7 100.7 78.2 100.7 76.7Z" fill="white"/>
</g>
<defs>
<clipPath id="clip0_1560_230">
<rect width="200" height="120" fill="white"/>
</clipPath>
</defs>
</svg>
