<svg width="200" height="120" viewBox="0 0 200 120" fill="none" xmlns="http://www.w3.org/2000/svg">
<path d="M176.215 39.1918C176.015 40.1908 176.015 42.4885 177.314 42.1888C179.112 41.7892 178.912 41.5894 179.911 40.6903C180.61 40.0909 182.209 41.6893 179.911 44.2867C178.712 45.6853 178.413 46.0849 179.012 46.8841C179.711 47.6833 181.509 48.0829 181.509 50.5804C181.509 52.8781 184.407 51.1798 185.106 50.2807C185.805 49.3816 186.305 45.4855 188.303 48.3826C189.701 50.3806 187.304 54.7762 190.201 55.1759C192.598 55.5755 192.998 58.1729 192.998 58.8722V59.072C198.992 53.2777 194.996 45.8851 194.896 44.986C194.596 43.3876 195.495 43.987 196.594 44.986C192.199 36.6943 183.408 31 173.418 31C171.719 31 170.021 31.1998 168.323 31.4995C173.617 31.6993 177.214 33.7972 176.215 39.1918ZM190.001 70.9601C188.403 71.5595 187.703 70.5605 186.504 71.7593C185.206 73.058 189.402 75.5555 181.609 73.7573C178.113 72.9581 178.612 76.7543 174.716 74.7563C173.617 72.1589 173.617 70.6604 174.516 69.062C175.615 67.1639 176.015 67.8632 175.316 65.7653C175.016 64.9661 175.316 64.5665 175.715 63.4676C176.115 62.3687 175.615 60.7703 174.017 60.8702C171.919 60.9701 172.119 61.9691 170.82 62.7683C169.921 63.3677 168.522 60.3707 171.519 57.6734C173.218 56.1749 173.617 55.7753 173.018 54.6763C172.419 53.4775 171.42 53.977 170.92 52.5784C170.62 51.5794 171.12 49.5814 169.621 49.1818C167.923 48.6823 166.624 51.0799 165.625 51.979C164.526 53.0779 163.228 55.076 162.628 53.4775C161.529 50.6803 166.524 46.5844 163.427 45.4855C160.53 44.4865 159.631 41.3896 159.631 41.3896C151.739 47.2837 155.435 52.3787 154.836 53.2778C154.137 54.1769 152.938 52.1788 151.839 53.1778C151.04 53.8771 150.241 58.6724 155.336 61.7693C157.234 62.9681 157.833 63.1679 157.433 63.8672C157.034 64.4666 155.535 63.9671 155.535 65.2658C155.635 67.7633 159.631 67.064 160.43 70.2608C161.13 73.2578 173.717 75.056 173.717 75.056C173.717 75.056 173.817 75.056 173.917 75.056L174.516 75.3557C174.716 76.1549 175.416 77.9531 177.214 78.8522C180.111 80.3507 177.014 79.6514 177.414 80.6504C177.613 81.1499 179.711 82.5485 183.308 81.7493C188.403 79.6514 192.598 75.9551 195.495 71.3597C192.698 68.9621 192.399 69.4616 190.001 70.9601Z" fill="#FFFFFE"/>
<path d="M174.117 75.0561C174.017 75.0561 173.917 74.9562 173.917 75.0561C173.917 75.0561 161.33 73.2579 160.63 70.2609C159.931 67.0641 155.835 67.8633 155.735 65.2659C155.735 63.9672 157.234 64.4667 157.633 63.8673C158.133 63.168 157.434 62.8683 155.536 61.7694C150.441 58.7724 151.24 53.9772 152.039 53.178C153.138 52.179 154.337 54.2769 155.036 53.2779C155.735 52.3788 151.939 47.1839 159.831 41.3897C159.831 41.3897 160.73 44.3867 163.627 45.4856C166.724 46.5845 161.729 50.6805 162.828 53.4777C163.428 55.0761 164.626 53.0781 165.825 51.9792C166.824 51.0801 168.123 48.6824 169.821 49.1819C171.32 49.6815 170.82 51.5796 171.12 52.5786C171.52 53.8773 172.618 53.4777 173.218 54.6765C173.817 55.7754 173.418 56.2749 171.719 57.6735C168.622 60.3708 170.121 63.2679 171.02 62.7684C172.319 61.8693 172.119 60.9702 174.217 60.8703C175.815 60.7704 176.315 62.3688 175.915 63.4677C175.516 64.5666 175.216 64.9662 175.516 65.7654C176.215 67.8633 175.815 67.164 174.716 69.0621C173.817 70.6605 173.817 72.159 174.916 74.7564C178.812 76.7544 178.313 72.9582 181.809 73.7574C189.602 75.5556 185.306 72.9582 186.704 71.7594C187.903 70.5606 188.603 71.6595 190.201 70.9602C192.599 69.4617 192.798 68.9622 195.995 71.4597C198.493 67.4637 199.991 62.6685 199.991 57.4737C199.991 52.9782 198.892 48.7823 196.894 45.1859C195.795 44.1869 194.896 43.4876 195.196 45.1859C195.296 46.085 199.392 53.5776 193.298 59.2719V59.0721C193.198 58.3728 192.798 55.6755 190.501 55.3758C187.604 54.9762 190.001 50.5806 188.603 48.5825C186.605 45.6854 186.105 49.6815 185.406 50.4807C184.706 51.3798 181.809 52.9782 181.809 50.7804C181.809 48.183 180.011 47.8832 179.312 47.084C178.613 46.2848 178.912 45.8852 180.211 44.4866C182.509 41.8892 180.81 40.2908 180.211 40.8902C179.212 41.7893 179.412 41.9891 177.614 42.3887C176.215 42.6884 176.315 40.2908 176.515 39.3917C177.514 33.8972 173.817 31.8992 168.622 31.7993C156.535 34.1969 147.344 44.8862 147.344 57.6735C147.344 72.2589 159.132 84.0471 173.717 84.0471C177.314 84.0471 180.71 83.3478 183.807 82.0491C180.111 82.9482 178.113 81.5496 177.913 80.9502C177.514 79.8513 180.611 80.6505 177.713 79.152C175.915 78.2529 175.216 76.4547 175.016 75.6555L174.117 75.0561Z" fill="#4AA241"/>
<path d="M175.616 75.8552C175.616 75.8552 158.333 69.1618 157.733 52.0789C157.733 52.0789 159.432 65.0659 175.616 75.8552ZM175.516 31.0999C176.015 31.1998 179.711 31.6993 183.707 34.1968C185.206 35.5954 187.204 38.8921 184.007 45.7852C184.007 45.7852 188.103 40.2907 187.104 36.8941C190.501 40.3906 193.398 45.7852 193.498 54.4765C193.498 54.5764 197.294 32.7982 175.516 31.0999ZM192.798 74.1568C191.5 74.956 189.302 76.8542 185.805 75.7553C185.805 75.7553 187.204 76.8542 189.402 76.7543C186.605 78.2528 183.508 78.5525 178.712 77.3537C178.712 77.3537 188.503 83.1479 195.296 72.0589C195.296 72.1588 193.598 73.6573 192.798 74.1568Z" fill="#4AA241"/>
<path d="M8.39186 50.98C8.39186 52.8781 8.79146 53.3776 10.0902 53.3776V53.8771H4.49575V53.3776C5.59466 53.3776 6.29396 53.0779 6.29396 50.8801V38.7922H3.99625C1.89835 38.7922 0.899346 39.3915 0.799446 41.0899H0.399845V37.4934H0.899346C1.09915 37.6932 1.39885 37.7931 1.79845 37.893C2.19805 37.9929 2.69755 37.9929 3.29695 37.9929H11.5887C12.9873 37.9929 13.5867 37.7931 14.0862 37.3935H14.5857V40.99H14.286C13.9863 39.6912 13.4868 38.6922 10.9893 38.6922H8.49176L8.39186 50.98ZM25.4748 51.4795C25.4748 52.978 25.7745 53.3776 27.0732 53.3776V53.8771H21.9783V53.3776C23.277 53.3776 23.5767 53.0779 23.5767 51.7792V46.984C23.5767 45.6853 22.7775 44.8861 21.5787 44.8861C20.4798 44.8861 19.6806 45.3856 18.7815 46.6843V51.979C18.7815 52.978 19.1811 53.2777 20.3799 53.2777V53.7772H15.0852V53.2777C16.5837 53.2777 16.7835 52.978 16.7835 51.3796V38.7922C16.7835 37.4934 16.3839 37.2936 15.0852 37.2936V36.7941L18.1821 36.4944H18.6816V45.6853C19.8804 44.2867 20.8794 43.6873 22.0782 43.6873C23.6766 43.6873 25.3749 44.7862 25.3749 47.0839L25.4748 51.4795ZM35.3649 47.3836C35.4648 45.1858 33.9663 44.3866 32.7675 44.3866C31.1691 44.3866 30.1701 45.5854 30.0702 47.3836H35.3649ZM29.9703 47.8831C29.8704 52.2787 32.5677 53.3776 33.8664 53.3776C35.265 53.3776 35.8644 52.8781 37.263 51.3796V52.0789C36.0642 53.5774 34.9653 54.1768 33.267 54.1768C30.1701 54.1768 27.9723 52.0789 27.9723 49.0819C27.9723 46.1848 30.1701 43.7872 32.8674 43.7872C35.1651 43.7872 37.263 45.5854 37.0632 47.8831H29.9703ZM62.5378 59.7712H61.8385L44.1561 37.9929H44.0562V55.5754C44.0562 58.0729 45.0552 59.0719 47.3529 59.0719V59.7712H39.7605V58.972C41.8584 58.972 42.8574 58.2727 42.8574 54.6763V40.0908C42.8574 37.2936 42.1581 35.6952 39.1611 35.4954V34.7961H45.5547L61.2391 54.2767H61.339V39.5913C61.339 36.2946 60.4399 35.4954 58.2421 35.4954V34.7961H65.8345V35.4954C63.4369 35.4954 62.6377 36.4944 62.6377 39.3916L62.5378 59.7712ZM85.6147 44.2867H91.0093V45.3856H85.6147V55.3756C85.6147 57.4735 86.7136 58.5724 88.4119 58.5724C89.5108 58.5724 90.4099 58.1728 91.309 57.0739L91.8085 57.6733C90.4099 59.3716 88.9114 60.2707 87.1132 60.2707C84.5158 60.2707 82.6177 58.4725 82.6177 55.7752V45.3856H79.7206V44.6863C81.8185 43.6873 83.5168 41.7892 84.9154 39.0918H85.6147V44.2867ZM108.592 56.8741C108.592 58.5724 109.191 59.0719 111.289 59.0719V59.7712L105.695 60.0709V57.2737H105.595C104.096 59.2717 102.298 60.2707 100.2 60.2707C97.1033 60.2707 95.1052 57.973 95.1052 55.0759V47.1838C95.1052 45.6853 94.6058 45.0859 92.308 45.0859V44.3866L97.3031 43.8871H98.0024V54.976C98.0024 57.1738 99.401 58.4725 101.499 58.4725C102.997 58.4725 104.296 57.6733 105.595 55.975V47.6833C105.595 45.5854 105.195 45.2857 102.598 45.2857V44.5864L107.793 44.0869H108.492L108.592 56.8741ZM118.182 56.8741C118.182 58.5724 118.682 59.0719 120.78 59.0719V59.7712H112.588V58.972C114.985 58.972 115.185 58.3726 115.185 55.975V47.5834C115.185 45.2857 114.586 45.0859 111.988 45.0859V44.3866L117.383 43.8871H118.082V47.2837C120.979 44.7862 122.278 43.8871 123.377 43.8871C124.276 43.8871 125.475 44.3866 126.174 45.0859L124.975 47.8831C123.677 47.1838 122.378 46.4845 121.279 46.4845C120.28 46.4845 119.381 46.984 117.982 48.3826L118.182 56.8741ZM138.062 49.5814C138.162 46.1848 135.865 44.7862 133.867 44.7862C131.269 44.7862 129.771 46.6843 129.571 49.5814H138.062ZM129.671 50.2807C129.571 57.2737 133.767 58.972 135.865 58.972C137.962 58.972 139.061 58.2727 141.359 55.7752V56.8741C139.461 59.2717 137.663 60.1708 134.965 60.1708C130.07 60.1708 126.574 56.7742 126.574 52.1788C126.574 47.4835 129.97 43.7872 134.366 43.7872C137.962 43.7872 141.259 46.6843 141.059 50.2807H129.671ZM15.8844 65.8651C14.9853 62.3686 13.0872 60.7702 9.79047 60.7702C5.29496 60.7702 2.89735 64.3666 2.89735 69.1618C2.89735 74.7562 5.79446 78.4525 9.99027 78.4525C12.8874 78.4525 15.0852 77.0539 16.4838 74.3566L16.9833 74.8561C15.7845 77.8531 12.7875 79.6513 9.19106 79.6513C4.69555 79.6513 0.000244141 76.5544 0.000244141 70.3606C0.000244141 64.3666 4.09615 60.0709 9.69056 60.0709C12.0882 60.0709 13.7865 60.8701 14.8854 60.8701C15.3849 60.8701 15.6846 60.6703 15.8844 60.2707H16.3839V65.8651H15.8844ZM24.5757 68.0629C22.0782 68.0629 20.6796 70.2607 20.6796 73.5574C20.6796 76.5544 21.8784 79.0519 24.5757 79.0519C27.273 79.0519 28.4718 76.3546 28.4718 73.5574C28.4718 70.6603 27.273 68.0629 24.5757 68.0629ZM24.5757 79.6513C20.9793 79.6513 18.282 77.0539 18.282 73.5574C18.282 70.0609 20.9793 67.3636 24.5757 67.3636C28.1721 67.3636 30.8694 69.961 30.8694 73.5574C30.9693 77.0539 28.1721 79.6513 24.5757 79.6513ZM44.3559 76.7542C44.3559 78.2527 44.6556 78.7522 46.3539 78.7522V79.3516H40.1601V78.7522C41.7585 78.7522 42.1581 78.3526 42.1581 77.3536V71.2597C42.1581 69.3616 40.8594 68.6623 39.5607 68.6623C38.4618 68.6623 37.3629 69.3616 36.264 70.96V76.6543C36.264 78.4525 36.4638 78.8521 38.262 78.8521V79.4515H32.1681V78.8521C33.6666 78.8521 34.0662 78.7522 34.0662 76.6543V69.961C34.0662 68.5624 33.6666 68.2627 32.1681 68.2627V67.6633L35.7645 67.2637H36.3639V69.5614C37.7625 67.963 39.0612 67.2637 40.5597 67.2637C42.4578 67.2637 44.4558 68.6623 44.4558 71.4595V76.7542M53.9464 70.96C53.7466 69.0619 52.4479 68.0629 51.0493 68.0629C49.9504 68.0629 49.1512 68.6623 49.1512 69.6613C49.1512 72.5584 55.2451 71.8591 55.2451 76.1548C55.2451 78.0529 53.5468 79.7512 51.5488 79.7512C50.2501 79.7512 49.1512 78.8521 48.6517 78.8521C48.252 78.8521 47.9523 79.2517 47.8524 79.6513H47.253V75.6553H47.8524C48.352 78.0529 50.1502 79.0519 51.5488 79.0519C52.6477 79.0519 53.5468 78.1528 53.5468 77.0539C53.5468 73.8571 47.3529 74.6563 47.3529 70.7602C47.3529 68.962 48.9514 67.4635 50.8495 67.4635C52.0483 67.4635 52.4479 68.0629 53.2471 68.0629C53.5468 68.0629 53.7466 67.8631 53.9464 67.4635H54.5458V71.0599L53.9464 70.96ZM65.0353 71.6593C65.1352 69.0619 63.4369 68.0629 61.9384 68.0629C60.0403 68.0629 58.8415 69.4615 58.7416 71.6593H65.0353ZM58.7416 72.2587C58.6417 77.4535 61.7386 78.7522 63.337 78.7522C64.9354 78.7522 65.7346 78.1528 67.4329 76.3546V77.1538C66.0343 78.952 64.6357 79.6513 62.6377 79.6513C59.0413 79.6513 56.344 77.1538 56.344 73.6573C56.344 70.1608 58.9414 67.4635 62.1382 67.4635C64.8355 67.4635 67.333 69.6613 67.1332 72.2587H58.7416ZM73.0273 77.0539C73.0273 78.3526 73.4269 78.6523 74.9254 78.6523V79.2517H68.8315V78.6523C70.6297 78.6523 70.8295 78.1528 70.8295 76.4545V70.1608C70.8295 68.4625 70.4299 68.2627 68.4319 68.2627V67.6633L72.5278 67.2637H73.1272V69.7612C75.325 67.8631 76.324 67.2637 77.1232 67.2637C77.8225 67.2637 78.6217 67.6633 79.2211 68.1628L78.322 70.2607C77.323 69.7612 76.324 69.2617 75.5248 69.2617C74.7256 69.2617 74.1262 69.6613 73.0273 70.6603V77.0539ZM86.8135 76.4545L89.1112 70.5604C89.7106 69.0619 89.7106 68.3626 88.0123 68.2627V67.6633H92.308V68.2627C91.0093 68.3626 90.6097 68.6623 90.1102 69.961L86.4139 79.5514H85.8145L82.1182 70.4605C81.319 68.5624 81.0193 68.3626 79.6207 68.2627V67.6633H85.2151V68.2627C84.1162 68.3626 83.8165 68.962 84.316 70.2607L86.8135 76.4545ZM115.285 76.7542C115.285 78.2527 115.585 78.7522 117.283 78.7522V79.3516H111.089V78.7522C112.688 78.7522 113.087 78.3526 113.087 77.3536V71.2597C113.087 69.3616 111.789 68.6623 110.49 68.6623C109.391 68.6623 108.292 69.3616 107.193 70.96V76.6543C107.193 78.4525 107.393 78.8521 109.191 78.8521V79.4515H103.097V78.8521C104.596 78.8521 104.995 78.7522 104.995 76.6543V69.961C104.995 68.5624 104.596 68.2627 103.097 68.2627V67.6633L106.694 67.2637H107.293V69.5614C108.692 67.963 109.99 67.2637 111.489 67.2637C113.387 67.2637 115.385 68.6623 115.385 71.4595V76.7542M128.072 71.4595H127.573C127.073 69.3616 125.575 68.0629 123.677 68.0629C121.379 68.0629 119.781 70.0609 119.781 72.8581C119.781 76.0549 121.779 78.6523 124.176 78.6523C125.575 78.6523 127.273 77.8531 128.472 76.2547V77.1538C127.273 78.8521 125.475 79.7512 123.377 79.7512C119.98 79.7512 117.583 77.3536 117.583 73.8571C117.583 70.2607 120.28 67.4635 123.577 67.4635C125.275 67.4635 126.274 68.1628 126.874 68.1628C127.173 68.1628 127.473 67.963 127.673 67.4635H128.272L128.072 71.4595ZM136.464 76.6543L138.462 70.5604C138.961 69.1618 138.862 68.4625 137.563 68.3626V67.7632H141.659V68.3626C140.46 68.3626 139.661 69.1618 138.961 71.0599L134.366 84.7462C133.467 87.4436 131.968 88.9421 130.57 88.9421C130.07 88.9421 129.771 88.8422 129.171 88.4426L129.97 86.4445C130.47 86.6443 130.67 86.7443 131.069 86.7443C132.468 86.7443 133.267 85.945 133.966 83.947L135.465 79.7512L131.269 70.1608C130.67 68.8621 130.27 68.4625 128.872 68.4625V67.8631H134.466V68.4625C133.567 68.5624 133.267 69.2617 133.667 70.2607L136.464 76.6543ZM74.6257 56.5744C74.0263 57.8731 72.328 58.5724 71.4289 58.5724C70.1302 58.5724 69.0313 57.2737 69.0313 55.7752C69.0313 52.6783 71.6287 52.6783 74.6257 51.3796V56.5744ZM77.6227 56.3746V49.4815C77.6227 45.2857 74.6257 43.7872 72.0283 43.7872C69.2311 43.7872 66.9334 45.6853 66.334 48.5824L67.1332 48.7822C67.8325 46.5844 69.5308 45.4855 71.2291 45.4855C73.4269 45.4855 74.7256 47.0839 74.7256 49.2817V50.3806C72.2281 51.8791 66.1342 51.6793 66.1342 56.0749C66.1342 58.3726 68.1322 60.1708 70.5298 60.1708C72.1282 60.1708 73.327 59.5714 74.8255 57.8731V59.7712H80.2201V58.972C78.0223 59.0719 77.6227 58.3726 77.6227 56.3746ZM98.402 76.954C97.9025 77.953 96.7037 78.4525 96.0044 78.4525C95.1052 78.4525 94.306 77.5534 94.306 76.3546C94.306 74.0569 96.2042 74.0569 98.402 73.1578V76.954ZM100.6 76.7542V71.6593C100.6 68.5624 98.402 67.4635 96.404 67.4635C94.306 67.4635 92.6077 68.8621 92.2081 70.96L92.8075 71.1598C93.307 69.4615 94.5058 68.6623 95.8046 68.6623C97.403 68.6623 98.402 69.8611 98.402 71.4595V72.2587C96.5039 73.3576 92.0083 73.2577 92.0083 76.4545C92.0083 78.1528 93.5068 79.4515 95.3051 79.4515C96.5039 79.4515 97.403 78.952 98.5019 77.7532V79.1518H102.498V78.5524C100.899 78.7522 100.6 78.2527 100.6 76.7542Z" fill="black"/>
</svg>
