<svg width="200" height="120" viewBox="0 0 200 120" fill="none" xmlns="http://www.w3.org/2000/svg">
<path d="M163.536 72.352C154.384 72.352 146.904 64.872 146.904 55.72C146.904 46.568 154.296 39.088 163.536 39C172.776 39 180.256 46.48 180.256 55.632C180.168 64.872 172.776 72.352 163.536 72.352Z" fill="#00AFF1"/>
<path d="M28.896 73.0557C28.72 73.0557 28.72 73.2317 28.632 73.3197C27.048 75.6957 24.76 76.9277 22.032 77.2797C20.536 77.4557 18.952 77.4557 17.456 77.0157C14.64 76.0477 13.056 73.9357 12.352 71.1197C12.088 70.2397 12 69.2717 12 68.3917C12 62.9357 12 57.4797 12 52.0237C12 51.6717 12.088 51.5837 12.44 51.5837C13.672 51.5837 14.992 51.5837 16.224 51.5837C16.576 51.5837 16.664 51.6717 16.664 52.0237C16.664 56.6877 16.664 61.4397 16.664 66.1037C16.664 67.3357 16.752 68.5677 17.016 69.7117C17.632 72.7917 19.744 74.0237 22.736 73.8477C24.76 73.6717 26.432 72.7917 27.4 70.9437C28.016 69.8877 28.28 68.7437 28.456 67.5117C28.632 66.1917 28.72 64.9597 28.72 63.6397C28.72 59.7677 28.72 55.8957 28.72 52.0237C28.72 51.6717 28.808 51.5837 29.16 51.5837C30.48 51.5837 31.888 51.5837 33.208 51.5837C33.472 51.5837 33.56 51.6717 33.56 51.9357C33.56 60.0317 33.56 68.1277 33.56 76.2237C33.56 76.4877 33.472 76.5757 33.208 76.5757C31.976 76.5757 30.656 76.5757 29.424 76.5757C29.072 76.5757 29.072 76.4877 29.072 76.1357C29.072 75.1677 29.072 74.2877 29.072 73.3197C28.984 73.3197 28.984 73.1437 28.896 73.0557Z" fill="#00AFF1"/>
<path d="M42.9761 55.104C43.5041 54.312 44.0321 53.608 44.7361 52.992C46.8481 51.232 49.2241 50.528 51.8641 50.88C53.1841 51.056 54.4161 51.32 55.6481 51.936C58.2881 53.168 59.6081 55.368 59.8721 58.184C59.9601 58.8 59.9601 59.416 59.9601 59.944C59.9601 65.312 59.9601 70.68 59.9601 76.048C59.9601 76.4 59.8721 76.488 59.5201 76.488C58.2881 76.488 56.9681 76.488 55.7361 76.488C55.3841 76.488 55.2081 76.4 55.2081 76.048C55.2081 71.032 55.2081 66.104 55.2081 61.088C55.2081 60.12 55.1201 59.152 54.9441 58.272C54.4161 56.16 53.0961 54.928 50.9841 54.576C48.5201 54.136 46.3201 54.752 44.5601 56.6C43.5921 57.568 43.2401 58.8 43.0641 60.032C42.8881 61.088 42.8001 62.232 42.8001 63.376C42.8001 67.688 42.8001 71.912 42.8001 76.224C42.8001 76.576 42.7121 76.664 42.3601 76.664C41.1281 76.664 39.8081 76.664 38.5761 76.664C38.2241 76.664 38.0481 76.576 38.0481 76.224C38.0481 70.68 38.0481 65.136 38.0481 59.592C38.0481 57.128 38.0481 54.576 38.0481 52.112C38.0481 51.76 38.1361 51.672 38.4881 51.672C39.8081 51.672 41.1281 51.672 42.3601 51.672C42.6241 51.672 42.7121 51.76 42.7121 52.024C42.7121 52.904 42.7121 53.784 42.7121 54.752C42.8881 54.84 42.8881 55.016 42.9761 55.104Z" fill="#00AFF1"/>
<path d="M91.1999 59.5919C90.5839 59.5919 89.9679 59.5919 89.3519 59.5919C88.9999 59.5919 88.9119 59.5039 88.9119 59.1519C88.8239 58.1839 88.5599 57.2159 88.0319 56.4239C86.9759 54.6639 85.2159 54.2239 83.2799 54.3119C80.8159 54.4879 79.3199 55.8958 78.5279 58.0958C77.7359 60.0318 77.6479 62.0559 77.6479 64.0799C77.6479 65.9279 77.8239 67.6878 78.3519 69.4478C78.7919 70.8558 79.5839 72.0878 80.9039 72.9678C82.6639 74.1118 86.0959 74.1119 87.7679 71.9999C88.5599 70.9439 88.9119 69.7999 88.9999 68.4799C88.9999 68.1279 89.1759 68.0399 89.4399 68.0399C90.6719 68.0399 91.9919 68.0399 93.2239 68.0399C93.6639 68.0399 93.6639 68.2158 93.6639 68.5678C93.2239 72.7038 90.5839 75.7839 86.5359 76.7519C83.5439 77.4559 80.5519 77.1918 77.8239 75.6958C75.4479 74.3758 74.0399 72.2639 73.3359 69.7999C72.1039 65.4879 72.1039 61.1759 74.0399 57.0399C75.7999 53.1679 78.9679 51.2318 83.1919 50.9678C85.1279 50.7918 87.0639 51.0559 88.8239 52.0239C91.5519 53.4319 93.0479 55.7199 93.4879 58.7119C93.6639 59.6799 93.5759 59.6799 92.6079 59.6799C92.0799 59.5919 91.6399 59.5919 91.1999 59.5919Z" fill="#00AFF1"/>
<path d="M128.336 65.6639C128.336 69.0959 128.336 72.5278 128.336 75.9598C128.336 76.3118 128.248 76.3998 127.896 76.3998C126.664 76.3998 125.344 76.3998 124.112 76.3998C123.76 76.3998 123.672 76.3118 123.672 75.9598C123.672 69.0958 123.672 62.3198 123.672 55.4558C123.672 54.9278 123.672 54.9278 123.144 54.9278C122 54.9278 120.944 54.9278 119.8 54.9278C119.536 54.9278 119.448 54.8398 119.448 54.5758C119.448 53.6958 119.448 52.9039 119.448 52.0239C119.448 51.6719 119.536 51.6719 119.8 51.6719C120.944 51.6719 122.088 51.6719 123.232 51.6719C123.672 51.6719 123.76 51.5839 123.76 51.1439C123.76 49.5599 123.76 47.9759 123.76 46.3919C123.76 44.7199 124.112 43.2239 125.256 41.9039C126.4 40.4959 128.072 39.8798 129.832 39.5278C131.504 39.2638 133.088 39.4398 134.672 39.8798C134.848 39.9678 134.936 39.9679 134.936 40.2319C134.936 41.3759 134.936 42.4318 134.936 43.5758C134.936 43.8398 134.848 43.8398 134.584 43.8398C133.704 43.8398 132.824 43.6639 131.944 43.7519C131.328 43.7519 130.712 43.8398 130.096 44.0158C129.04 44.3678 128.512 45.1598 128.424 46.2158C128.336 47.9758 128.424 49.6478 128.424 51.4078C128.424 51.6718 128.6 51.6719 128.776 51.6719C130.448 51.6719 132.12 51.6719 133.792 51.6719C134.144 51.6719 134.232 51.7599 134.232 52.1119C134.232 52.9039 134.232 53.6958 134.232 54.5758C134.232 54.8398 134.144 54.9278 133.88 54.9278C132.208 54.9278 130.624 54.9278 128.952 54.9278C128.512 54.9278 128.424 55.0158 128.424 55.4558C128.336 58.7998 128.336 62.2319 128.336 65.6639Z" fill="#00AFF1"/>
<path d="M64.448 64.1679C64.448 60.2079 64.448 56.1599 64.448 52.1999C64.448 51.8479 64.536 51.6719 64.888 51.6719C66.208 51.6719 67.44 51.6719 68.76 51.6719C69.024 51.6719 69.112 51.7599 69.112 52.0239C69.112 60.1199 69.112 68.2159 69.112 76.3119C69.112 76.5759 69.024 76.6639 68.76 76.6639C67.44 76.6639 66.12 76.6639 64.888 76.6639C64.536 76.6639 64.448 76.5759 64.448 76.2239C64.448 72.1759 64.448 68.1279 64.448 64.1679Z" fill="#00AFF1"/>
<path d="M162.568 76.136C161.688 75.696 160.896 75.5201 160.016 75.3441C159.84 75.3441 159.752 75.344 159.664 75.432C158.784 76.4 157.728 76.664 156.496 76.752C153.944 76.928 151.48 76.488 149.104 75.432L149.016 75.3441C153.856 74.1121 158.608 73.76 163.36 75.52C163.536 75.608 163.712 75.608 163.8 75.52C166.528 74.552 169.256 74.2 172.16 74.376C174.184 74.464 176.208 74.9041 178.144 75.3441C178.056 75.5201 177.792 75.52 177.616 75.608C175.416 76.488 173.128 76.928 170.752 76.752C169.52 76.664 168.464 76.312 167.496 75.432C167.408 75.344 167.32 75.256 167.144 75.256C166.176 75.344 165.296 75.608 164.416 76.048C165.208 76.576 165.912 77.0161 166.616 77.5441C167.672 78.3361 168.64 79.216 169.52 80.272C169.696 80.448 169.696 80.624 169.52 80.8C169.432 80.888 169.432 80.888 169.344 80.976C168.904 81.328 168.904 81.328 168.552 80.888C167.144 79.304 165.648 77.896 163.888 76.84C163.624 76.664 163.448 76.664 163.096 76.84C161.336 77.984 159.84 79.304 158.52 80.888C158.432 81.064 158.344 81.328 158.08 81.24C157.816 81.064 157.552 80.8881 157.376 80.6241C157.288 80.5361 157.464 80.448 157.552 80.36C158.872 78.688 160.456 77.368 162.304 76.312C162.392 76.224 162.392 76.224 162.568 76.136Z" fill="#00AFF1"/>
<path d="M66.736 40.6719C67.528 40.6719 68.408 40.6719 69.2 40.6719C69.464 40.6719 69.552 40.7599 69.552 41.0239C69.552 42.5199 69.552 44.0159 69.552 45.5119C69.552 45.7759 69.464 45.8639 69.2 45.8639C67.528 45.8639 65.856 45.8639 64.184 45.8639C63.92 45.8639 63.832 45.7759 63.832 45.5119C63.832 44.0159 63.832 42.5199 63.832 41.0239C63.832 40.7599 63.92 40.6719 64.184 40.6719C65.064 40.6719 65.944 40.6719 66.736 40.6719Z" fill="#00AFF1"/>
<path d="M187.208 61.7039C187.12 62.9359 186.592 64.0799 186.064 65.1359C184.92 67.0719 183.512 68.5679 181.4 69.4479C181.136 69.5359 180.696 69.7999 180.608 69.6239C180.432 69.4479 180.696 69.0959 180.784 68.8319C182.28 66.2799 184.128 64.0799 186.416 62.2319C186.592 61.9679 186.856 61.7919 187.208 61.7039Z" fill="#00AFF1"/>
<path d="M184.04 69.1838C183.16 70.8558 182.104 72.3518 180.432 73.3198C178.848 74.2878 177.176 74.3758 175.328 74.0238C177.88 71.6478 180.784 70.0638 184.04 69.1838Z" fill="#00AFF1"/>
<path d="M143.032 69.3601C146.288 70.2401 149.192 71.9121 151.744 74.2001C148.224 74.9041 145.144 73.5841 143.032 69.3601Z" fill="#00AFF1"/>
<path d="M146.728 62.1438C147.52 63.1118 147.96 64.2558 148.312 65.3998C148.84 66.9838 149.28 68.5678 149.368 70.2398C149.368 70.5038 149.368 70.7678 149.192 70.8558C149.016 70.9438 148.84 70.6798 148.664 70.5918C146.376 69.0078 145.584 66.7198 146.112 63.7278C146.288 63.2878 146.376 62.6718 146.728 62.1438Z" fill="#00AFF1"/>
<path d="M139.776 61.6162C140.392 61.9682 140.92 62.4082 141.448 62.8482C143.12 64.4322 144.616 66.1922 145.848 68.2162C146.024 68.5682 146.2 68.9202 146.376 69.2722C146.464 69.5362 146.376 69.6242 146.112 69.5362C145.232 69.2722 144.352 68.8322 143.648 68.2162C141.8 66.7202 140.48 64.6962 139.864 62.4082C139.688 62.1442 139.688 61.9682 139.776 61.6162Z" fill="#00AFF1"/>
<path d="M180.344 62.1438C180.784 62.7598 180.784 63.4638 180.872 64.0798C181.224 66.0158 180.872 67.7758 179.64 69.3598C179.2 69.8878 178.672 70.3278 178.144 70.7678C177.792 71.0318 177.704 70.9438 177.616 70.5038C177.616 69.8878 177.704 69.3598 177.792 68.7438C178.144 66.9838 178.672 65.3118 179.376 63.6398C179.64 63.1998 179.904 62.6718 180.344 62.1438Z" fill="#00AFF1"/>
<path d="M155.968 73.7601C155.176 73.8481 154.384 73.8481 153.68 73.6721C152.36 73.3201 151.48 72.6161 150.776 71.4721C150.16 70.3281 149.896 69.0961 149.72 67.7761C151.216 68.3041 155.616 72.5281 155.968 73.7601Z" fill="#00AFF1"/>
<path d="M177.176 67.688C177.264 68.128 177.088 68.48 177 68.832C176.824 69.624 176.56 70.504 176.12 71.208C174.976 73.32 173.216 73.936 171.104 73.76C170.84 73.76 170.928 73.672 170.928 73.496C171.016 73.232 171.192 72.968 171.456 72.704C173.04 70.856 174.888 69.184 176.912 67.776C177.088 67.688 177.088 67.688 177.176 67.688Z" fill="#00AFF1"/>
<path d="M187.824 54.312C188.176 56.16 188 57.832 187.296 59.592C186.68 61.176 185.712 62.32 184.216 63.112C184.568 59.856 185.976 56.952 187.824 54.312Z" fill="#00AFF1"/>
<path d="M139.336 54.0481C141.272 56.7761 142.592 59.6801 143.032 63.0241C140.568 62.1441 138.28 56.6881 139.336 54.0481Z" fill="#00AFF1"/>
<path d="M182.016 65.6639C181.048 62.8479 180.872 59.9439 181.488 56.9519C182.368 58.1839 183.072 59.5039 183.336 60.9999C183.6 62.7599 183.16 64.2559 182.016 65.6639Z" fill="#00AFF1"/>
<path d="M144.968 65.8402C143.032 63.3762 143.208 60.3842 145.496 57.1282C146.2 58.2722 145.936 63.9922 144.968 65.8402Z" fill="#00AFF1"/>
<path d="M186.064 47.6238C186.768 49.8238 187.208 52.0238 186.592 54.3118C186.328 55.1918 185.888 55.8958 185.36 56.5998C184.656 55.1038 185.184 49.0318 186.064 47.6238Z" fill="#00AFF1"/>
<path d="M141.624 56.5999C139.512 53.7839 139.776 50.7919 140.832 47.7119C141.8 49.0319 142.328 54.7519 141.624 56.5999Z" fill="#00AFF1"/>
<path d="M145.32 52.1118C145.32 55.0158 144.352 57.4798 142.856 59.9438C142.24 58.4478 142.328 57.0398 142.856 55.6318C143.296 54.5758 144 53.6078 144.792 52.7278C144.968 52.5518 145.144 52.3758 145.32 52.1118Z" fill="#00AFF1"/>
<path d="M181.664 52.2C184.304 54.576 185.36 57.744 184.216 60.032C182.72 57.568 181.752 55.104 181.664 52.2Z" fill="#00AFF1"/>
<path d="M184.304 53.6959C182.192 51.8479 180.96 49.4719 180.168 46.9199C182.808 48.4159 184.656 50.3519 184.304 53.6959Z" fill="#00AFF1"/>
<path d="M146.816 47.0962C146.64 48.7682 144.176 52.8162 142.768 53.6082C142.152 51.4962 144.44 47.8002 146.816 47.0962Z" fill="#00AFF1"/>
<path d="M181.488 43.2239C183.6 44.2799 185.272 47.7119 184.656 49.8239C183.336 49.1199 181.752 45.9519 181.488 43.2239Z" fill="#00AFF1"/>
<path d="M145.584 43.312C145.144 45.688 144.44 47.976 142.68 49.736C142.592 49.824 142.504 50 142.416 49.912C142.328 49.824 142.328 49.648 142.328 49.56C142.152 48.416 142.416 47.36 142.944 46.304C143.56 45.16 144.44 44.28 145.408 43.4C145.408 43.4 145.496 43.4 145.584 43.312Z" fill="#00AFF1"/>
<path d="M147.696 55.456C147.784 53.432 148.136 51.584 148.84 49.736C150.512 45.776 153.24 42.96 157.2 41.2C157.552 41.024 157.728 41.112 157.992 41.376C158.432 41.992 158.432 41.992 157.904 42.432C157.376 42.872 156.936 43.224 156.408 43.664C156.848 43.928 157.288 44.016 157.64 43.576C157.992 43.224 158.432 42.96 158.784 42.696C158.96 42.608 159.048 42.608 159.224 42.696C159.488 42.96 159.84 43.136 160.192 43.312C160.456 43.4 160.544 43.576 160.368 43.84C160.104 44.28 159.84 44.72 159.664 45.072C159.576 45.248 159.4 45.336 159.664 45.512C159.928 45.6 160.016 45.688 160.104 45.424C160.368 44.896 160.632 44.456 160.896 44.016C160.984 43.752 161.16 43.664 161.336 43.84C161.776 44.016 162.304 44.104 162.744 44.104C162.92 44.104 163.008 44.192 163.008 44.368C163.008 45.072 163.008 45.776 163.008 46.48C163.008 46.744 162.92 46.832 162.656 46.832C162.216 46.832 161.776 46.832 161.336 46.744C161.248 46.744 161.16 46.656 160.984 46.744C161.16 47.184 161.336 47.36 161.864 47.36C163.008 47.272 163.008 47.36 163.008 48.416C163.008 49.56 163.008 50.792 163.008 51.936C163.008 52.2 163.096 52.288 163.36 52.288C163.624 52.288 163.712 52.2 163.712 51.936C163.712 51.672 163.624 51.32 163.8 51.144C163.976 50.968 164.328 51.056 164.592 51.056C165.12 50.968 165.648 50.88 166.176 50.88C166.792 50.88 167.056 50.352 167.408 50.088C166.792 50 166.176 50.176 165.56 50.176C165.032 50.176 164.592 50.264 164.064 50.264C163.8 50.264 163.712 50.176 163.712 50C163.712 49.208 163.712 48.328 163.712 47.536C163.712 47.272 163.8 47.272 164.064 47.184C165.12 47.184 166.176 47.096 167.232 46.744C167.496 46.656 167.584 46.832 167.584 47.008C167.848 47.712 168.112 48.504 168.288 49.208C168.376 49.384 168.376 49.56 168.64 49.384C168.816 49.296 169.08 49.296 168.992 48.944C168.728 48.152 168.464 47.448 168.2 46.656C168.112 46.48 168.112 46.392 168.376 46.304C169.256 46.04 170.048 45.688 170.84 45.248C171.016 45.16 171.104 45.16 171.28 45.336C171.984 46.128 172.512 47.096 173.04 47.976C173.128 48.152 173.04 48.24 172.864 48.328C172.512 48.416 172.248 48.592 171.896 48.768C172.336 48.856 172.688 49.12 173.128 48.944C173.216 48.944 173.304 48.856 173.392 49.032C173.568 49.56 174.008 49.472 174.36 49.648C174.448 49.56 174.36 49.472 174.36 49.472C174.272 49.208 173.92 48.856 174.096 48.68C174.184 48.504 174.624 48.416 174.8 48.24C175.416 47.976 175.944 47.624 176.472 47.184C176.736 47.008 176.824 47.008 176.912 47.272C178.144 49.12 178.848 51.232 179.112 53.432C179.376 55.896 179.376 58.36 178.584 60.736C177.616 63.728 175.856 66.192 173.392 68.128C173.216 68.216 173.128 68.304 172.952 68.216C171.896 67.6 171.192 66.72 171.016 65.488C171.016 65.312 171.016 65.136 171.016 64.872C171.104 64.52 171.28 64.344 171.72 64.344C172.512 64.432 173.216 64.344 173.92 63.992C179.376 61.528 179.64 55.368 176.472 52.112C175.68 51.32 174.712 50.528 173.656 50.088C171.28 49.032 168.728 49.56 166.968 51.584C166.088 52.64 165.032 53.08 163.712 53.168C162.92 53.168 162.744 53.52 163.096 54.224C163.36 54.752 163.272 54.84 162.744 55.016C162.48 55.104 162.48 55.28 162.568 55.456C162.656 55.896 162.568 56.16 162.128 56.248C161.776 56.336 161.864 56.6 161.952 56.864C162.04 57.128 161.952 57.304 161.776 57.48C161.248 58.008 161.16 58.8 161.688 59.328C162.128 59.856 162.744 60.208 163.272 60.648C163.976 61.176 164.416 61.88 164.328 62.848C164.328 63.024 164.328 63.288 164.416 63.464C164.504 63.992 164.592 64.52 164.68 64.96C164.944 66.016 164.504 66.632 163.448 66.72C161.688 66.896 160.104 67.512 158.432 68.128C157.376 68.568 156.232 68.832 155.088 68.656C154.736 68.656 154.384 68.48 154.12 68.216C153.856 67.952 153.592 67.776 153.328 67.512C152.8 67.16 152.8 66.632 152.976 66.104C152.976 66.016 153.064 65.928 153.064 65.84C153.152 65.664 153.24 65.4 153.416 65.312C153.592 65.136 153.768 65.488 153.944 65.576C154.736 65.928 155.528 65.84 156.232 65.664C157.2 65.576 158.168 65.4 159.048 65.136C159.224 65.136 159.312 65.136 159.488 65.224C160.808 65.752 161.864 65.312 162.304 63.904C162.392 63.64 162.392 63.376 162.48 63.112C162.48 62.584 162.216 62.408 161.776 62.496C161.6 62.496 161.512 62.584 161.424 62.672C161.248 62.672 161.16 62.76 161.248 62.496C161.424 62.144 161.16 62.144 160.896 62.144C160.456 62.144 160.104 62.408 159.752 62.672C159.488 62.936 159.136 63.024 158.784 62.848C158.344 62.672 157.816 62.76 157.376 62.672C157.112 62.672 156.76 62.584 156.496 62.496C155.968 62.32 155.704 62.056 155.616 61.44C155.44 59.68 155.264 58.008 154.824 56.336C154.736 55.896 155.088 55.456 155.616 55.368C156.056 55.368 156.496 55.456 156.936 55.544C157.288 55.632 157.552 55.72 157.904 55.72C158.256 55.72 158.608 55.544 158.872 55.28C159.048 55.104 159.136 54.928 159.4 54.84C159.4 54.84 159.488 54.84 159.488 54.752C159.488 54.4 159.84 54.224 159.84 53.96C159.84 53.696 159.928 53.52 160.192 53.432C160.456 53.344 160.456 53.168 160.456 52.904C160.28 52.376 160.456 51.936 160.808 51.496C162.128 49.824 162.04 48.064 160.632 46.48C159.4 45.16 157.816 44.192 155.968 44.192C153.768 44.192 150.952 45.952 151.304 49.56C151.392 50.176 151.48 50.792 151.656 51.496C151.744 52.2 151.568 52.728 150.952 53.08C149.632 54.048 148.664 54.664 147.696 55.456Z" fill="white"/>
<path d="M176.384 46.3923C176.384 46.4803 176.296 46.5683 176.208 46.5683C175.504 47.0083 174.712 47.4483 174.008 47.8883C173.832 47.9763 173.744 47.9763 173.656 47.8003C173.216 46.8323 172.6 45.9523 171.896 45.0723C171.808 44.8963 171.808 44.8963 171.984 44.8083C172.512 44.4563 173.04 44.1043 173.48 43.7523C173.568 43.6643 173.656 43.6643 173.832 43.7523C174.888 44.3683 175.68 45.2483 176.384 46.3043C176.384 46.3043 176.384 46.3043 176.384 46.3923Z" fill="white"/>
<path d="M167.232 45.9519C166.44 46.2159 165.648 46.3039 164.768 46.3919C164.416 46.3919 163.976 46.6559 163.8 46.4799C163.536 46.3039 163.712 45.8639 163.712 45.5119C163.712 45.0719 163.712 44.6319 163.712 44.1039C163.712 43.8399 163.712 43.7519 164.064 43.7519C164.592 43.7519 165.12 43.6639 165.648 43.4879C165.912 43.3999 165.912 43.4879 166 43.6639C166.528 44.3679 166.88 45.1599 167.232 45.9519Z" fill="white"/>
<path d="M168.112 42.2561C168.2 42.2561 168.2 42.3441 168.288 42.3441C169.168 42.9601 169.872 43.6641 170.576 44.3681C170.752 44.5441 170.752 44.6321 170.488 44.7201C169.696 45.0721 168.904 45.4241 168.112 45.6881C167.936 45.7761 167.936 45.6881 167.848 45.5121C167.496 44.7201 167.144 43.9281 166.704 43.2241C166.616 43.1361 166.616 43.0481 166.704 42.9601C167.232 42.8721 167.672 42.6081 168.112 42.2561Z" fill="white"/>
<path d="M169.52 40.9363C169.608 40.9363 169.696 41.0243 169.784 41.0243C170.928 41.4643 171.984 42.0803 173.04 42.8723C173.304 43.0483 173.216 43.1363 173.04 43.3123C172.6 43.6643 172.072 44.0163 171.632 44.2803C171.456 44.3683 171.368 44.3683 171.28 44.1923C170.576 43.4003 169.784 42.6963 168.904 41.9923C168.816 41.9043 168.728 41.9043 168.728 41.8163C168.64 41.6403 169.344 40.9363 169.52 40.9363Z" fill="white"/>
<path d="M163.8 40.4082C164.504 41.1122 165.032 41.9042 165.472 42.6082C165.56 42.7842 165.472 42.7842 165.296 42.8722C164.856 42.9602 164.504 43.0482 164.064 43.0482C163.888 43.0482 163.8 43.0482 163.8 42.7842C163.8 41.9922 163.8 41.2882 163.8 40.4082Z" fill="white"/>
<path d="M163.096 40.4961C163.096 41.2881 163.096 41.9921 163.096 42.7841C163.096 43.0481 163.008 43.0481 162.832 43.0481C162.392 42.9601 161.952 42.8721 161.424 42.7841C161.952 41.9921 162.48 41.2881 163.096 40.4961Z" fill="white"/>
<path d="M167.496 41.8161C166.44 42.6081 166.44 42.6081 165.648 41.5521C165.384 41.1121 165.032 40.7601 164.768 40.3201C165.824 40.6721 166.704 41.2001 167.496 41.8161Z" fill="white"/>
<path d="M168.728 40.584C168.552 40.848 168.376 41.024 168.2 41.288C168.024 41.464 167.936 41.376 167.848 41.288C167.056 40.848 166.352 40.408 165.472 39.968C166.616 39.968 167.672 40.232 168.728 40.584Z" fill="white"/>
<path d="M162.216 40.6723C161.776 41.2003 161.336 41.7283 160.984 42.3443C160.896 42.5203 160.808 42.6083 160.632 42.5203C160.28 42.3443 159.928 42.2563 159.664 41.9043C160.456 41.4643 161.248 40.9363 162.128 40.5843C162.128 40.4963 162.216 40.5843 162.216 40.6723Z" fill="white"/>
<path d="M161.424 39.968C160.632 40.408 159.84 40.848 159.048 41.288C158.96 41.376 158.872 41.288 158.784 41.2C158.608 41.024 158.432 40.848 158.256 40.496C159.312 40.232 160.368 39.968 161.424 39.968Z" fill="white"/>
<path d="M162.216 40.6721L162.128 40.5841C162.216 40.4961 162.304 40.4961 162.392 40.4961C162.392 40.5841 162.304 40.5841 162.216 40.6721Z" fill="#67C5E9"/>
<path d="M117.776 58.6238C116.984 55.5438 115.224 53.1678 112.232 51.9358C110.208 51.1438 108.184 50.8798 105.984 51.0558C102.464 51.4078 99.6481 52.9918 97.8001 55.9838C96.6561 57.9198 96.0401 60.0318 95.8641 62.3198C95.6001 65.0478 95.7761 67.7758 96.7441 70.4158C97.6241 72.8798 99.1201 74.9038 101.584 76.0478C105.28 77.7198 109.064 77.6318 112.672 76.0478C115.664 74.7278 117.248 72.2638 117.864 69.0958C117.864 68.9198 117.952 68.7438 117.6 68.7438C116.104 68.7438 114.608 68.7438 113.112 68.7438C112.936 68.7438 112.848 68.8318 112.848 69.0078C112.76 69.3598 112.672 69.7118 112.584 70.0638C112.056 71.8238 111.088 73.0558 109.24 73.5838C108.448 73.8478 107.568 73.9358 106.688 73.8478C104.488 73.8478 102.816 72.8798 101.672 70.9438C100.704 69.2718 100.44 67.4238 100.528 65.4878C100.528 65.1358 100.704 65.0478 101.056 65.0478C103.784 65.0478 106.512 65.0478 109.328 65.0478C112.144 65.0478 114.872 65.0478 117.688 65.0478C117.864 65.0478 118.128 65.1358 118.128 64.7838C118.216 62.6718 118.304 60.6478 117.776 58.6238ZM113.024 61.7038C111.088 61.7038 109.064 61.7038 107.128 61.7038C105.192 61.7038 103.168 61.7038 101.232 61.7038C101.056 61.7038 100.792 61.7918 100.88 61.4398C100.968 59.5038 101.408 57.7438 102.728 56.2478C103.96 54.8398 105.632 54.2238 107.48 54.3118C109.592 54.3998 111.352 55.1918 112.408 57.1278C113.112 58.4478 113.376 59.9438 113.376 61.4398C113.376 61.7918 113.2 61.7038 113.024 61.7038Z" fill="#00AFF1"/>
</svg>
