<svg width="200" height="120" viewBox="0 0 200 120" fill="none" xmlns="http://www.w3.org/2000/svg">
<path d="M89.205 94.344C88.503 94.344 87.963 94.668 87.693 95.262L84.831 102.714L84.615 103.524L84.399 102.714L82.131 95.478V95.37C81.915 94.776 81.321 94.344 80.619 94.344H76.947C76.137 94.452 75.597 95.046 75.597 95.964C75.597 96.18 75.705 96.396 75.705 96.666L76.137 98.286L74.409 102.768L74.085 103.578L73.869 102.768L71.709 95.532V95.424H71.601C71.493 94.83 70.899 94.398 70.251 94.398H66.579C65.769 94.506 65.067 95.1 65.067 96.018C65.067 96.234 65.175 96.45 65.283 96.72L70.683 112.974C70.899 113.676 71.493 114.108 72.195 114.108C72.897 114.108 73.437 113.676 73.707 113.082L77.487 103.47L77.811 102.552L78.027 103.47L81.213 112.974C81.321 113.676 82.023 114.108 82.725 114.108C83.427 114.108 83.967 113.676 84.237 113.082L90.663 96.612C90.771 96.396 90.771 96.18 90.771 95.91C90.717 95.046 90.015 94.344 89.205 94.344ZM116.367 94.344C115.665 94.344 115.125 94.668 114.855 95.262L111.993 102.714L111.777 103.524L111.561 102.714L109.293 95.478V95.37C109.077 94.776 108.483 94.344 107.781 94.344H104.109C103.299 94.452 102.759 95.046 102.759 95.964C102.759 96.18 102.759 96.396 102.867 96.666L103.299 98.286L101.571 102.768L101.247 103.578L101.031 102.768L98.871 95.532L98.763 95.424C98.655 94.83 98.061 94.398 97.413 94.398H93.741C92.931 94.506 92.229 95.1 92.229 96.018C92.229 96.234 92.337 96.45 92.445 96.72L97.845 112.974C98.061 113.676 98.655 114.108 99.357 114.108C100.059 114.108 100.599 113.676 100.869 113.082L104.649 103.47L104.973 102.552L105.189 103.47L108.375 112.974C108.483 113.676 109.185 114.108 109.887 114.108C110.589 114.108 111.129 113.676 111.399 113.082L117.825 96.612C117.933 96.396 117.933 96.18 117.933 95.91C117.825 95.046 117.123 94.344 116.367 94.344ZM133.971 94.344H121.281C120.471 94.344 119.931 94.938 119.931 95.694V112.542C120.039 113.352 120.633 113.892 121.443 113.892H125.007C125.817 113.892 126.357 113.298 126.357 112.542V104.658H131.649C132.351 104.658 132.999 103.956 132.999 103.308C132.999 102.498 132.297 101.796 131.649 101.796H126.357V97.314H134.025C134.835 97.314 135.537 96.612 135.537 95.802C135.483 95.046 134.781 94.344 133.971 94.344ZM114.261 40.506C116.529 43.044 116.799 50.82 122.631 47.742C126.087 45.906 126.087 38.13 121.389 35.268C117.609 33.108 115.557 36.078 114.153 39.75C114.045 40.074 114.045 40.29 114.261 40.506ZM105.243 39.264C102.705 41.208 101.139 46.824 96.657 44.88C92.985 43.044 92.661 35.97 98.925 32.622C103.299 30.57 105.459 34.566 105.459 38.832C105.459 38.94 105.351 39.156 105.243 39.264ZM111.183 53.358C113.613 53.142 113.019 50.82 111.183 50.388C109.563 49.794 107.187 49.47 105.351 49.578C102.273 49.578 102.381 52.008 104.001 52.44C105.243 52.764 106.053 52.872 107.079 54.276C107.997 56.112 107.511 53.682 111.183 53.358ZM122.523 13.506C125.493 8.48396 130.785 9.40196 133.377 11.886C136.239 14.64 136.833 17.826 135.645 20.04C134.133 23.01 130.245 26.574 127.761 23.118C126.627 21.498 124.305 19.662 122.955 19.23C121.065 18.312 120.687 16.584 122.523 13.506Z" fill="#272728"/>
<path d="M134.565 35.592C134.349 34.674 133.863 34.782 133.863 35.484C134.079 44.664 128.571 54.492 116.907 54.6C113.937 54.6 114.855 59.298 109.347 56.868C105.459 54.222 103.137 59.514 100.437 53.898C99.7351 52.278 98.8171 51.63 97.6831 51.252C86.1271 48.444 82.4551 32.514 92.6611 19.662C94.6051 20.904 95.4151 21.174 97.5751 19.068C98.6011 18.042 100.545 16.908 101.571 16.53C104.001 15.612 105.351 14.586 103.191 9.888C102.165 7.674 100.815 6.486 99.3571 6H95.4691C94.3351 6.324 93.3091 6.864 92.3911 7.62C89.4211 10.05 87.4771 13.83 91.1491 18.258C80.8351 25.278 78.9991 33.864 79.2151 41.424C79.4311 49.308 77.4871 48.66 80.0251 56.652C80.2411 57.354 79.7011 57.354 79.3231 57.084C68.5771 50.28 62.7451 29.166 79.5931 17.61C79.9171 17.286 79.8091 16.8 78.4591 17.61C63.9331 25.278 62.5291 40.182 64.9591 50.226C66.0931 55.032 64.3651 55.95 66.2011 62.376C70.5751 75.66 74.1931 76.794 79.4851 77.172C88.9891 77.172 82.4551 71.88 82.9411 65.4C82.9411 64.968 83.3731 64.806 83.6431 65.616C88.9351 77.28 92.5531 87.972 106.323 86.892C114.207 85.866 109.887 81.978 109.293 79.656C103.461 60.324 117.663 55.734 113.667 74.634C111.021 85.488 119.391 84.354 125.331 80.466C131.325 76.578 138.885 50.172 134.565 35.592ZM111.399 58.65C110.049 62.106 103.245 60.918 103.029 57.516C103.029 57.408 103.245 57.408 103.245 57.516C106.323 58.218 109.185 58.542 111.129 58.542C111.291 58.488 111.399 58.38 111.399 58.65Z" fill="#272728"/>
<path d="M81.7531 83.112C81.7531 84.948 80.2411 86.406 78.4051 86.46C76.4611 86.46 74.9491 84.948 74.9491 83.112C74.9491 81.276 76.4611 79.656 78.4051 79.656C80.2411 79.71 81.7531 81.276 81.7531 83.112ZM78.4591 79.116C76.1911 79.116 74.3551 80.844 74.3551 83.112C74.3551 85.272 76.1911 87.108 78.4591 87.108C80.6191 87.108 82.4551 85.272 82.4551 83.112C82.4551 80.844 80.6191 79.116 78.4591 79.116Z" fill="#272728"/>
<path d="M79.5931 83.7061C79.4851 84.3001 78.9991 84.6241 78.5671 84.6241C77.7571 84.6241 77.2171 83.9221 77.2171 83.1121C77.2171 82.3021 77.6491 81.6001 78.4591 81.6001C79.0531 81.6001 79.4851 81.9241 79.5931 82.4101H80.1331C80.0251 81.4921 79.3231 81.0601 78.4051 81.0601C77.2711 81.0601 76.4611 81.9781 76.4611 83.1121C76.4611 84.2461 77.2711 85.1641 78.5131 85.1641C79.3231 85.1641 79.8631 84.5701 80.1331 83.6521L79.5931 83.7061ZM134.781 88.4041C134.781 90.2401 133.269 91.6981 131.433 91.7521C129.489 91.7521 127.977 90.2401 127.977 88.4041C127.977 86.5681 129.489 84.9481 131.433 84.9481C133.269 84.9481 134.781 86.5681 134.781 88.4041ZM131.487 84.4081C129.219 84.4081 127.383 86.1361 127.383 88.4041C127.383 90.5641 129.219 92.4001 131.487 92.4001C133.647 92.4001 135.483 90.5641 135.483 88.4041C135.483 86.1361 133.647 84.4081 131.487 84.4081Z" fill="#272728"/>
<path d="M130.785 88.62H131.379L132.405 90.348H133.107L131.973 88.62C132.567 88.512 132.999 88.296 132.999 87.594C132.999 86.784 132.567 86.46 131.649 86.46H130.299V90.348H130.893L130.785 88.62ZM130.785 88.188V87.054H131.487C131.919 87.054 132.405 87.054 132.405 87.486C132.405 88.188 131.973 88.188 131.487 88.188H130.785Z" fill="#272728"/>
</svg>
