<svg width="200" height="120" viewBox="0 0 200 120" fill="none" xmlns="http://www.w3.org/2000/svg">
<g clip-path="url(#clip0_1560_230)">
<path d="M89.0921 94.29C88.3901 94.29 87.8501 94.614 87.5801 95.208L84.7181 102.66L84.5021 103.47L84.2861 102.66L82.0181 95.424V95.316C81.8021 94.722 81.2081 94.29 80.5061 94.29H76.8341C76.0241 94.398 75.4841 94.992 75.4841 95.91C75.4841 96.126 75.5921 96.342 75.5921 96.612L76.0241 98.232L74.2961 102.714L73.9721 103.524L73.7561 102.714L71.5961 95.478V95.37H71.4881C71.3801 94.776 70.7861 94.344 70.1381 94.344H66.4661C65.6561 94.452 64.9541 95.046 64.9541 95.964C64.9541 96.18 65.0621 96.396 65.1701 96.666L70.5701 112.92C70.7861 113.622 71.3801 114.054 72.0821 114.054C72.7841 114.054 73.3241 113.622 73.5941 113.028L77.3741 103.416L77.6981 102.498L77.9141 103.416L81.1001 112.92C81.2081 113.622 81.9101 114.054 82.6121 114.054C83.3141 114.054 83.8541 113.622 84.1241 113.028L90.5501 96.558C90.6581 96.342 90.6581 96.126 90.6581 95.856C90.6041 94.992 89.9021 94.29 89.0921 94.29ZM116.254 94.29C115.552 94.29 115.012 94.614 114.742 95.208L111.88 102.66L111.664 103.47L111.448 102.66L109.18 95.424V95.316C108.964 94.722 108.37 94.29 107.668 94.29H103.996C103.186 94.398 102.646 94.992 102.646 95.91C102.646 96.126 102.646 96.342 102.754 96.612L103.186 98.232L101.458 102.714L101.134 103.524L100.918 102.714L98.7581 95.478L98.6501 95.37C98.5421 94.776 97.9481 94.344 97.3001 94.344H93.6281C92.8181 94.452 92.1161 95.046 92.1161 95.964C92.1161 96.18 92.2241 96.396 92.3321 96.666L97.7321 112.92C97.9481 113.622 98.5421 114.054 99.2441 114.054C99.9461 114.054 100.486 113.622 100.756 113.028L104.536 103.416L104.86 102.498L105.076 103.416L108.262 112.92C108.37 113.622 109.072 114.054 109.774 114.054C110.476 114.054 111.016 113.622 111.286 113.028L117.712 96.558C117.82 96.342 117.82 96.126 117.82 95.856C117.712 94.992 117.01 94.29 116.254 94.29ZM133.858 94.29H121.168C120.358 94.29 119.818 94.884 119.818 95.64V112.488C119.926 113.298 120.52 113.838 121.33 113.838H124.894C125.704 113.838 126.244 113.244 126.244 112.488V104.604H131.536C132.238 104.604 132.886 103.902 132.886 103.254C132.886 102.444 132.184 101.742 131.536 101.742H126.244V97.26H133.912C134.722 97.26 135.424 96.558 135.424 95.748C135.37 94.992 134.668 94.29 133.858 94.29ZM114.148 40.452C116.416 42.99 116.686 50.766 122.518 47.688C125.974 45.852 125.974 38.076 121.276 35.214C117.496 33.054 115.444 36.024 114.04 39.696C113.932 40.02 113.932 40.236 114.148 40.452ZM105.13 39.21C102.592 41.154 101.026 46.77 96.5441 44.826C92.8721 42.99 92.5481 35.916 98.8121 32.568C103.186 30.516 105.346 34.512 105.346 38.778C105.346 38.886 105.238 39.102 105.13 39.21ZM111.07 53.304C113.5 53.088 112.906 50.766 111.07 50.334C109.45 49.74 107.074 49.416 105.238 49.524C102.16 49.524 102.268 51.954 103.888 52.386C105.13 52.71 105.94 52.818 106.966 54.222C107.884 56.058 107.398 53.628 111.07 53.304ZM122.41 13.452C125.38 8.43001 130.672 9.34801 133.264 11.832C136.126 14.586 136.72 17.772 135.532 19.986C134.02 22.956 130.132 26.52 127.648 23.064C126.514 21.444 124.192 19.608 122.842 19.176C120.952 18.258 120.574 16.53 122.41 13.452Z" fill="white"/>
<path d="M134.452 35.538C134.236 34.62 133.75 34.728 133.75 35.43C133.966 44.61 128.458 54.438 116.794 54.546C113.824 54.546 114.742 59.244 109.234 56.814C105.346 54.168 103.024 59.46 100.324 53.844C99.622 52.224 98.704 51.576 97.57 51.198C86.014 48.39 82.342 32.46 92.548 19.608C94.492 20.85 95.302 21.12 97.462 19.014C98.488 17.988 100.432 16.854 101.458 16.476C103.888 15.558 105.238 14.532 103.078 9.83404C102.052 7.62004 100.702 6.43204 99.244 5.94604H95.356C94.222 6.27004 93.196 6.81004 92.278 7.56604C89.308 9.99605 87.364 13.776 91.036 18.204C80.722 25.224 78.886 33.81 79.102 41.37C79.318 49.254 77.374 48.606 79.912 56.598C80.128 57.3 79.588 57.3 79.21 57.03C68.464 50.226 62.632 29.112 79.48 17.556C79.804 17.232 79.696 16.746 78.346 17.556C63.82 25.224 62.416 40.128 64.846 50.172C65.98 54.978 64.252 55.896 66.088 62.322C70.462 75.606 74.08 76.74 79.372 77.118C88.876 77.118 82.342 71.826 82.828 65.346C82.828 64.914 83.26 64.752 83.53 65.562C88.822 77.226 92.44 87.918 106.21 86.838C114.094 85.812 109.774 81.9241 109.18 79.6021C103.348 60.2701 117.55 55.68 113.554 74.58C110.908 85.434 119.278 84.3001 125.218 80.4121C131.212 76.5241 138.772 50.118 134.452 35.538ZM111.286 58.596C109.936 62.052 103.132 60.864 102.916 57.462C102.916 57.354 103.132 57.354 103.132 57.462C106.21 58.164 109.072 58.488 111.016 58.488C111.178 58.434 111.286 58.326 111.286 58.596Z" fill="white"/>
<path d="M81.6399 83.058C81.6399 84.894 80.1279 86.352 78.2919 86.406C76.3479 86.406 74.8359 84.894 74.8359 83.058C74.8359 81.222 76.3479 79.602 78.2919 79.602C80.1279 79.656 81.6399 81.222 81.6399 83.058ZM78.3459 79.062C76.0779 79.062 74.2419 80.79 74.2419 83.058C74.2419 85.218 76.0779 87.054 78.3459 87.054C80.5059 87.054 82.3419 85.218 82.3419 83.058C82.3419 80.79 80.5059 79.062 78.3459 79.062Z" fill="white"/>
<path d="M79.4799 83.6521C79.3719 84.2461 78.8859 84.5701 78.4539 84.5701C77.6439 84.5701 77.1039 83.8681 77.1039 83.0581C77.1039 82.2481 77.5359 81.5461 78.3459 81.5461C78.9399 81.5461 79.3719 81.8701 79.4799 82.3561H80.0199C79.9119 81.4381 79.2099 81.0061 78.2919 81.0061C77.1579 81.0061 76.3479 81.9241 76.3479 83.0581C76.3479 84.1921 77.1579 85.1101 78.3999 85.1101C79.2099 85.1101 79.7499 84.5161 80.0199 83.5981L79.4799 83.6521ZM134.668 88.3501C134.668 90.1861 133.156 91.6441 131.32 91.6981C129.376 91.6981 127.864 90.1861 127.864 88.3501C127.864 86.5141 129.376 84.8941 131.32 84.8941C133.156 84.8941 134.668 86.5141 134.668 88.3501ZM131.374 84.3541C129.106 84.3541 127.27 86.0821 127.27 88.3501C127.27 90.5101 129.106 92.3461 131.374 92.3461C133.534 92.3461 135.37 90.5101 135.37 88.3501C135.37 86.0821 133.534 84.3541 131.374 84.3541Z" fill="white"/>
<path d="M130.672 88.566H131.266L132.292 90.294H132.994L131.86 88.566C132.454 88.458 132.886 88.242 132.886 87.54C132.886 86.73 132.454 86.406 131.536 86.406H130.186V90.294H130.78L130.672 88.566ZM130.672 88.134V87H131.374C131.806 87 132.292 87 132.292 87.432C132.292 88.134 131.86 88.134 131.374 88.134H130.672Z" fill="white"/>
</g>
<defs>
<clipPath id="clip0_1560_230">
<rect width="108" height="108" fill="white" transform="translate(46 6)"/>
</clipPath>
</defs>
</svg>
