<svg width="31" height="31" viewBox="0 0 31 31" fill="none" xmlns="http://www.w3.org/2000/svg">
<path d="M21.0502 30.5518L21.0502 18.7283L25.0101 18.7283L25.6024 14.1319L21.0502 14.1319L21.0502 11.1989C21.0502 9.86824 21.4202 8.96017 23.328 8.96017L25.762 8.96017L25.762 4.84925C24.5837 4.72423 23.3995 4.66361 22.2146 4.66764C18.7062 4.66764 16.3045 6.80966 16.3045 10.7441L16.3045 14.1319L12.3361 14.1319L12.3361 18.7283L16.3045 18.7283L16.3045 30.5518L1.69732 30.5518C0.759918 30.5518 0 29.7919 0 28.8545L0 1.69732C0 0.759917 0.759918 0 1.69732 0L28.8545 0C29.7919 0 30.5518 0.759917 30.5518 1.69732L30.5518 28.8545C30.5518 29.7919 29.7919 30.5518 28.8545 30.5518L21.0502 30.5518Z" fill="#1A1A1A"/>
</svg>
