<svg width="32" height="31" viewBox="0 0 32 31" fill="none" xmlns="http://www.w3.org/2000/svg">
<path fill-rule="evenodd" clip-rule="evenodd" d="M22.3803 0.0916554C20.7518 0.0152759 20.234 0 16.0835 0C11.9331 0 11.4152 0.0198587 9.7868 0.0916554C8.15839 0.168035 7.05241 0.423143 6.07781 0.801985C5.05803 1.185 4.13421 1.78611 3.37092 2.5633C2.59307 3.32606 1.99186 4.25003 1.6096 5.27019C1.23076 6.24479 0.975652 7.35077 0.899273 8.97918C0.822893 10.6076 0.807617 11.1254 0.807617 15.2759C0.807617 19.4264 0.827476 19.9442 0.899273 21.5726C0.975652 23.1995 1.23076 24.3085 1.6096 25.2816C1.99292 26.3012 2.59399 27.225 3.37092 27.9885C4.13399 28.766 5.05787 29.3671 6.07781 29.7498C7.05241 30.1271 8.15991 30.3838 9.7868 30.4602C11.4152 30.5365 11.9331 30.5518 16.0835 30.5518C20.234 30.5518 20.7518 30.532 22.3803 30.4602C24.0071 30.3838 25.1162 30.1271 26.0893 29.7498C27.1086 29.366 28.0323 28.765 28.7961 27.9885C29.5739 27.2257 30.1751 26.3017 30.5575 25.2816C30.9348 24.307 31.1914 23.1995 31.2678 21.5726C31.3442 19.9442 31.3594 19.4264 31.3594 15.2759C31.3594 11.1254 31.3396 10.6076 31.2678 8.97918C31.1914 7.35229 30.9348 6.24326 30.5575 5.27019C30.174 4.25066 29.5729 3.32693 28.7961 2.5633C27.9468 1.71548 27.0975 1.18999 26.0893 0.801985C25.1146 0.423143 24.0071 0.168035 22.3803 0.0916554ZM8.44128 15.2762C8.44128 11.0579 11.8609 7.63826 16.0792 7.63826C20.2976 7.63826 23.7172 11.0579 23.7172 15.2762C23.7172 19.4945 20.2976 22.9142 16.0792 22.9142C11.8609 22.9142 8.44128 19.4945 8.44128 15.2762ZM26.0114 7.25631C26.0114 6.20172 25.1565 5.34682 24.1019 5.34682C23.0473 5.34682 22.1924 6.20172 22.1924 7.25631C22.1924 8.31089 23.0473 9.16579 24.1019 9.16579C25.1565 9.16579 26.0114 8.31089 26.0114 7.25631ZM20.6679 15.2772C20.6679 12.7463 18.6162 10.6945 16.0852 10.6945C13.5542 10.6945 11.5024 12.7463 11.5024 15.2772C11.5024 17.8082 13.5542 19.86 16.0852 19.86C18.6162 19.86 20.6679 17.8082 20.6679 15.2772Z" fill="#1A1A1A"/>
</svg>
