<svg width="31" height="31" viewBox="0 0 31 31" fill="none" xmlns="http://www.w3.org/2000/svg">
<path fill-rule="evenodd" clip-rule="evenodd" d="M2.61512 0L28.647 0C29.8928 0 30.9112 0.984447 30.9112 2.20143L30.9112 28.3504C30.9112 29.5674 29.8928 30.5518 28.647 30.5518L2.61342 30.5518C1.36759 30.5518 0.359375 29.5674 0.359375 28.3504L0.359375 2.20143C0.359375 0.984447 1.36589 0 2.61512 0ZM5.29292 8.69171C5.78571 9.18482 6.45445 9.46156 7.15156 9.46088C8.60228 9.46136 9.77893 8.28594 9.77987 6.83512C9.7808 5.38402 8.60521 4.20691 7.15411 4.20597C5.703 4.20503 4.52589 5.38062 4.52496 6.83173C4.5236 7.52914 4.79993 8.19841 5.29292 8.69171ZM21.8635 26.0332L26.3868 26.0332H26.3885L26.3885 18.0303C26.3885 14.1044 25.5399 11.0866 20.9571 11.0866C18.7506 11.0866 17.2739 12.2968 16.6663 13.4408L16.6069 13.4408L16.6069 11.4549L12.2617 11.4549L12.2617 26.0332L16.7868 26.0332L16.7868 18.8196C16.7868 16.9169 17.1466 15.077 19.5042 15.077C21.8295 15.077 21.8635 17.2529 21.8635 18.9435L21.8635 26.0332ZM9.42376 26.0347L4.88681 26.0347L4.88681 11.4564L9.42545 11.4564L9.42545 26.0347H9.42376Z" fill="#1A1A1A"/>
</svg>
