<svg width="75" height="75" viewBox="0 0 75 75" fill="#ffffff" xmlns="http://www.w3.org/2000/svg">
<path d="M27.9412 70.1994H17.1992C15.4297 70.1994 14 68.7697 14 67.0002V8.1992C14 6.4297 15.4297 5 17.1992 5H27.9292C29.6987 5 31.1284 6.4297 31.1284 8.1992V67.0002C31.1401 68.7697 29.699 70.1994 27.9412 70.1994Z" fill="white"/>
<path d="M58.6012 70.1994H47.8712C46.1017 70.1994 44.672 68.7697 44.672 67.0002V8.1992C44.672 6.4297 46.1017 5 47.8712 5H58.6012C60.3707 5 61.8004 6.4297 61.8004 8.1992V67.0002C61.8004 68.7697 60.3707 70.1994 58.6012 70.1994Z" fill="white"/>
</svg>
