<svg width="32" height="32" viewBox="0 0 32 32" fill="none" xmlns="http://www.w3.org/2000/svg">
<path d="M32 16.3069C31.8549 16.579 31.7279 16.8693 31.5284 17.1052C31.1837 17.5043 30.7121 17.595 30.2042 17.595C26.1591 17.595 22.0959 17.595 18.0509 17.595C17.9239 17.595 17.7788 17.595 17.5974 17.595C17.5974 17.7583 17.5974 17.8853 17.5974 18.0123C17.5974 22.0036 17.5792 25.9949 17.6155 29.9862C17.6155 30.984 17.289 31.6734 16.3095 32C16.11 32 15.8923 32 15.6927 32C15.6746 31.9819 15.6565 31.9637 15.6383 31.9637C14.7495 31.6553 14.3867 31.1473 14.3867 30.2039C14.3867 26.1582 14.3867 22.0943 14.3867 18.0486C14.3867 17.9216 14.3867 17.7764 14.3867 17.595C14.2416 17.595 14.0965 17.595 13.9695 17.595C9.9063 17.595 5.82495 17.595 1.76174 17.595C0.836639 17.595 0.219902 17.1233 0.0385091 16.325C-0.161024 15.4542 0.437574 14.5652 1.30826 14.4201C1.48966 14.3838 1.68919 14.3838 1.87058 14.3838C5.89751 14.3838 9.92444 14.3838 13.9514 14.3838C14.0783 14.3838 14.2235 14.3838 14.3867 14.3838C14.3867 14.2205 14.3867 14.0754 14.3867 13.9484C14.3867 9.88452 14.3867 5.82064 14.3867 1.7749C14.3867 0.849645 14.8583 0.214664 15.6746 0.0332404C16.5272 -0.148183 17.416 0.432371 17.5611 1.3032C17.6155 1.50277 17.6155 1.70233 17.6155 1.88376C17.6155 5.91135 17.6155 9.9208 17.6155 13.9484C17.6155 14.0754 17.6155 14.2205 17.6155 14.402C17.7788 14.402 17.9057 14.402 18.0327 14.402C22.0234 14.402 26.014 14.4201 29.9865 14.3838C30.9842 14.3838 31.6735 14.7104 32 15.6901C32 15.8896 32 16.1073 32 16.3069Z" fill="#E8E8E8"/>
</svg>
