<svg width="47" height="71" viewBox="0 0 47 71" fill="none" xmlns="http://www.w3.org/2000/svg">
<path d="M27.802 24.445C29.4131 24.992 30.8796 25.3917 32.2635 25.9597C41.5583 29.8516 47.0732 39.2762 46.247 49.7947C45.5034 59.3876 38.2328 67.9286 28.8967 70.2637C14.7273 73.7979 2.68538 63.9316 0.495937 51.099C-0.660751 44.325 0.330692 37.6353 2.21031 31.1138C6.73378 15.357 17.1646 5.49067 32.2635 0.420746C34.1844 -0.231407 35.9814 -0.210365 37.5925 1.17808C39.6994 3.0083 39.782 5.97452 38.0263 8.30963C35.651 11.4652 33.2963 14.6418 31.1481 17.9656C29.8262 19.9852 28.8967 22.2572 27.802 24.445Z" fill="#1A1A1A"/>
</svg>
