<svg width="31" height="31" viewBox="0 0 31 31" fill="none" xmlns="http://www.w3.org/2000/svg">
<path fill-rule="evenodd" clip-rule="evenodd" d="M27.4459 30.2559L3.91353 30.2559C2.05699 30.2559 0.551758 28.7507 0.551758 26.8942L0.551758 3.36177C0.551758 1.50523 2.05699 0 3.91353 0L27.4459 0C29.3025 0 30.8077 1.50523 30.8077 3.36177L30.8077 26.8942C30.8077 28.7507 29.3025 30.2559 27.4459 30.2559Z" fill="#212121"/>
<path d="M24.3004 23.532L18.8905 23.532L7.13184 6.72314L12.5418 6.72314L24.3004 23.532ZM19.5351 22.1066L21.6891 22.1066L11.8971 8.14854L9.74309 8.14854L19.5351 22.1066Z" fill="white"/>
<path d="M8.84398 23.5331L14.8977 16.5204L14.106 15.4707L7.12695 23.5331L8.84398 23.5331Z" fill="white"/>
<path d="M16.0579 13.2122L16.8185 14.2955L23.358 6.72314L21.6771 6.72314L16.0579 13.2122Z" fill="white"/>
</svg>
