<svg width="14" height="26" viewBox="0 0 14 26" fill="none" xmlns="http://www.w3.org/2000/svg">
<path d="M8.52545 25.3578C6.97963 25.3578 5.4338 25.3578 3.88798 25.3578C3.88798 25.2484 3.87237 25.139 3.87237 25.0296C3.87237 21.3881 3.87237 17.7467 3.87237 14.1053C3.87237 13.9959 3.87237 13.9021 3.87237 13.7771C2.56076 13.7771 1.28038 13.7771 0 13.7771C0 12.2611 0 10.7764 0 9.26048C1.29599 9.26048 2.57637 9.26048 3.87237 9.26048C3.87237 9.13546 3.87237 9.04169 3.87237 8.96354C3.87237 8.01021 3.85675 7.05688 3.87237 6.11917C3.88798 5.50966 3.91921 4.90015 4.04413 4.30627C4.49694 1.97764 6.1833 0.414797 8.52545 0.0866002C9.6653 -0.069684 10.7895 0.0240865 11.9294 0.0709718C12.3197 0.0866002 12.7257 0.149114 13.1161 0.195999C13.1161 1.54004 13.1161 2.86846 13.1161 4.2125C12.1168 4.22813 11.1174 4.2125 10.1337 4.25939C9.32179 4.29065 8.82213 4.72824 8.61914 5.47841C8.5723 5.66595 8.54107 5.86912 8.54107 6.05666C8.52545 7.0725 8.52545 8.08835 8.52545 9.1042C8.52545 9.15109 8.54107 9.2136 8.55668 9.29174C10.0244 9.29174 11.4922 9.29174 12.9756 9.29174C12.7882 10.8077 12.5852 12.2924 12.3978 13.7927C11.1018 13.7927 9.82145 13.7927 8.54107 13.7927C8.54107 13.9178 8.54107 13.9959 8.54107 14.0897C8.54107 17.7467 8.54107 21.4194 8.54107 25.0764C8.50984 25.1702 8.52545 25.264 8.52545 25.3578Z" fill="white"/>
</svg>
