<svg width="22" height="23" viewBox="0 0 22 23" fill="none" xmlns="http://www.w3.org/2000/svg">
<path d="M16.6826 22.5896C12.9354 22.5896 9.1754 22.5896 5.4282 22.5896C5.37704 22.5768 5.32588 22.564 5.26194 22.5512C2.40998 22.2443 0.1591 19.8015 0.146311 16.9368C0.133521 13.4326 0.133521 9.94117 0.146311 6.43696C0.1591 3.32922 2.71691 0.771404 5.82466 0.758615C9.31608 0.745826 12.7947 0.745826 16.2733 0.758615C18.7288 0.771404 20.903 2.35725 21.6703 4.69765C21.811 5.13248 21.8749 5.59289 21.9773 6.0405C21.9773 9.7877 21.9773 13.5477 21.9773 17.2949C21.9645 17.346 21.9517 17.3972 21.9389 17.4611C21.5936 19.8655 20.2763 21.4769 17.9999 22.2954C17.565 22.4361 17.1174 22.4873 16.6826 22.5896ZM18.1277 11.6805C18.1277 10.619 18.1277 9.54471 18.1277 8.48322C18.1277 6.2835 16.4396 4.59534 14.2399 4.59534C12.1169 4.59534 9.9939 4.59534 7.87091 4.59534C5.67119 4.59534 3.98303 6.29629 3.98303 8.48322C3.98303 10.6062 3.98303 12.7292 3.98303 14.8522C3.98303 17.0519 5.67119 18.7401 7.87091 18.7401C9.9939 18.7401 12.1169 18.7401 14.2399 18.7401C16.4396 18.7401 18.1277 17.0391 18.1277 14.8522C18.1277 13.7907 18.1277 12.7292 18.1277 11.6805Z" fill="white"/>
<path d="M16.8486 11.669C16.8486 12.7305 16.8486 13.792 16.8486 14.8407C16.8486 16.3498 15.7232 17.4625 14.2269 17.4625C12.1167 17.4625 9.99368 17.4625 7.88348 17.4625C6.37437 17.4625 5.26172 16.337 5.26172 14.8279C5.26172 12.7177 5.26172 10.6075 5.26172 8.49734C5.26172 6.97544 6.37437 5.86279 7.89627 5.86279C10.0065 5.86279 12.1167 5.86279 14.2269 5.86279C15.7488 5.86279 16.8614 6.97544 16.8614 8.51013C16.8486 9.55884 16.8486 10.6203 16.8486 11.669ZM11.0552 14.8663C12.8201 14.8663 14.2524 13.4339 14.2524 11.669C14.2524 9.90414 12.8201 8.47176 11.0552 8.47176C9.29028 8.47176 7.8579 9.90414 7.8579 11.669C7.8579 13.4339 9.29028 14.8663 11.0552 14.8663ZM14.7128 8.63802C15.0582 8.63802 15.3523 8.35666 15.3523 8.01136C15.3523 7.66605 15.0709 7.3719 14.7256 7.35911C14.3675 7.34633 14.0734 7.64047 14.0734 7.99857C14.0862 8.35666 14.3675 8.63802 14.7128 8.63802Z" fill="white"/>
<path d="M11.0551 9.74805C12.1166 9.74805 12.9734 10.6177 12.9734 11.6792C12.9734 12.7279 12.1038 13.5848 11.0551 13.5848C9.99359 13.5848 9.13672 12.7151 9.13672 11.6536C9.13672 10.6049 10.0064 9.74805 11.0551 9.74805Z" fill="white"/>
</svg>
