<svg width="23" height="23" viewBox="0 0 23 23" fill="none" xmlns="http://www.w3.org/2000/svg">
<path d="M8.1875 22.5944C8.1875 17.8586 8.1875 13.1367 8.1875 8.40089C8.1875 8.2888 8.1875 8.17671 8.1875 8.0366C9.63067 8.0366 11.0598 8.0366 12.531 8.0366C12.531 8.68112 12.531 9.32564 12.531 9.98418C12.8393 9.61988 13.1055 9.25559 13.4278 8.94734C14.2264 8.19072 15.1932 7.7984 16.2721 7.70032C17.2108 7.61626 18.1496 7.68631 19.0603 7.96654C20.5455 8.44293 21.4703 9.47977 21.8626 10.951C22.0588 11.7076 22.1288 12.5062 22.2549 13.2769C22.2829 13.431 22.297 13.5851 22.311 13.7532C22.311 16.6816 22.311 19.624 22.311 22.5524C20.8118 22.5524 19.2985 22.5524 17.7713 22.5524C17.7713 22.4263 17.7713 22.3142 17.7713 22.2161C17.7713 19.8062 17.7853 17.4102 17.7573 15.0003C17.7573 14.4118 17.6732 13.8093 17.5471 13.2348C17.379 12.4502 16.9166 11.8897 16.0899 11.7076C15.7536 11.6375 15.4034 11.6235 15.0531 11.6515C13.9182 11.7356 13.1756 12.3381 12.9233 13.445C12.7832 14.0755 12.7132 14.748 12.7132 15.3926C12.6852 17.8025 12.6992 20.1985 12.6992 22.6084C11.214 22.5944 9.70073 22.5944 8.1875 22.5944Z" fill="white"/>
<path d="M0.830078 22.594C0.830078 19.5255 0.830078 16.471 0.830078 13.4025C0.830078 11.7211 0.830078 10.0257 0.830078 8.34438C0.830078 8.2463 0.830078 8.14822 0.830078 8.03613C2.34331 8.03613 3.82851 8.03613 5.35576 8.03613C5.35576 8.14822 5.35576 8.26032 5.35576 8.37241C5.35576 13.0662 5.35576 17.774 5.35576 22.4679C5.35576 22.5099 5.35576 22.5519 5.35576 22.594C3.85654 22.594 2.34331 22.594 0.830078 22.594Z" fill="white"/>
<path d="M5.70559 3.39767C5.67757 4.88288 4.47259 6.04582 3.01541 6.00379C1.61427 5.97576 0.437311 4.74276 0.465334 3.3136C0.493357 1.88444 1.71235 0.721497 3.14151 0.749519C4.58468 0.791554 5.73361 1.96851 5.70559 3.39767Z" fill="white"/>
</svg>
