<svg width="22" height="23" viewBox="0 0 22 23" fill="none" xmlns="http://www.w3.org/2000/svg">
<path d="M0.315086 22.5928C0.815761 21.992 1.31644 21.4055 1.83142 20.8046C4.04869 18.2297 6.26597 15.6405 8.48324 13.0656C8.52616 13.0084 8.56907 12.9512 8.62629 12.894C5.85112 8.85996 3.09026 4.82595 0.300781 0.763328C0.386611 0.763328 0.429526 0.749023 0.486746 0.749023C2.47514 0.749023 4.47784 0.749023 6.46624 0.749023C6.60929 0.749023 6.68081 0.806243 6.75234 0.906379C8.51185 3.46697 10.2571 6.01327 12.0166 8.57386C12.0595 8.63108 12.1024 8.70261 12.1596 8.77413C12.5173 8.35929 12.8749 7.94444 13.2182 7.5439C15.1065 5.35524 16.9947 3.16657 18.8687 0.963599C18.9974 0.806243 19.1405 0.749023 19.3407 0.749023C19.8557 0.763328 20.3707 0.749023 20.9429 0.749023C18.2822 3.85321 15.6357 6.91448 13.0036 9.99006C13.0465 10.0616 13.0895 10.1188 13.1324 10.176C15.9218 14.2386 18.7113 18.3156 21.5151 22.3782C21.558 22.4354 21.5866 22.5069 21.6295 22.5785C19.5124 22.5785 17.3953 22.5785 15.2781 22.5785C15.2495 22.5356 15.2352 22.4926 15.2066 22.4497C13.3183 19.7318 11.4444 16.9995 9.57043 14.2673C9.54181 14.2243 9.4989 14.1814 9.45598 14.1242C9.38446 14.1957 9.32724 14.2673 9.28432 14.3245C7.76799 16.084 6.25166 17.8435 4.74964 19.603C3.90564 20.5901 3.04734 21.5914 2.20335 22.5785C1.55962 22.5928 0.930201 22.5928 0.315086 22.5928ZM2.86138 2.16522C2.9186 2.25105 2.94721 2.30827 2.97582 2.35118C7.33884 8.58817 11.6876 14.8252 16.0506 21.0764C16.1221 21.1909 16.2079 21.2338 16.351 21.2338C17.1807 21.2338 18.0104 21.2338 18.8401 21.2338C18.8973 21.2338 18.9545 21.2195 19.0403 21.2195C18.9688 21.1194 18.9259 21.0478 18.883 20.9906C15.693 16.413 12.4886 11.8354 9.29863 7.27211C8.15423 5.64134 7.00983 3.99626 5.86543 2.36549C5.80821 2.29396 5.70807 2.19383 5.63655 2.19383C4.72103 2.16522 3.81981 2.16522 2.86138 2.16522Z" fill="white"/>
</svg>
