<svg width="22" height="22" viewBox="0 0 22 22" fill="none" xmlns="http://www.w3.org/2000/svg">
<g clip-path="url(#clip0_1682_99)">
<path d="M16.2793 12.6413C16.2365 12.6208 14.6326 11.831 14.3476 11.7284C14.2312 11.6866 14.1066 11.6458 13.974 11.6458C13.7575 11.6458 13.5755 11.7538 13.4338 11.9658C13.2736 12.2039 12.7886 12.7708 12.6387 12.9402C12.6192 12.9625 12.5925 12.9893 12.5765 12.9893C12.5621 12.9893 12.3139 12.887 12.2387 12.8544C10.5182 12.107 9.21232 10.3098 9.03325 10.0068C9.00768 9.96318 9.00661 9.94339 9.00639 9.94339C9.01268 9.92032 9.07053 9.86232 9.10039 9.83239C9.18775 9.74597 9.28239 9.63204 9.37396 9.52182C9.41732 9.46961 9.46075 9.41732 9.50339 9.36804C9.63625 9.21346 9.69539 9.09346 9.76396 8.95446L9.79989 8.88225C9.96732 8.54961 9.82432 8.26889 9.77811 8.17825C9.74018 8.10239 9.06296 6.46796 8.99096 6.29625C8.81782 5.88189 8.58903 5.68896 8.27111 5.68896C8.24161 5.68896 8.27111 5.68896 8.14739 5.69418C7.99675 5.70054 7.17639 5.80854 6.81368 6.03718C6.42903 6.27968 5.77832 7.05268 5.77832 8.41211C5.77832 9.63561 6.55475 10.7908 6.88811 11.2302C6.89639 11.2413 6.91161 11.2638 6.93368 11.296C8.21032 13.1605 9.80182 14.5422 11.4152 15.1867C12.9684 15.8071 13.7039 15.8788 14.122 15.8788H14.1221C14.2978 15.8788 14.4385 15.865 14.5625 15.8528L14.6412 15.8453C15.1778 15.7978 16.357 15.1868 16.6252 14.4414C16.8365 13.8543 16.8922 13.2129 16.7516 12.9801C16.6553 12.8218 16.4894 12.7422 16.2793 12.6413Z" fill="white"/>
<path d="M11.1953 0C5.23698 0 0.389555 4.811 0.389555 10.7245C0.389555 12.6371 0.901412 14.5094 1.87105 16.1479L0.0151263 21.6226C-0.0194452 21.7246 0.00626912 21.8375 0.0817691 21.9144C0.136269 21.97 0.210198 22 0.285698 22C0.314626 22 0.343769 21.9956 0.372198 21.9866L6.08077 20.1726C7.64291 21.0072 9.40848 21.4478 11.1953 21.4478C17.1531 21.4479 22 16.6374 22 10.7245C22 4.811 17.1531 0 11.1953 0ZM11.1953 19.2139C9.51391 19.2139 7.88541 18.7284 6.48555 17.8098C6.43848 17.7789 6.38384 17.763 6.32884 17.763C6.29977 17.763 6.27063 17.7674 6.24227 17.7764L3.38263 18.6854L4.30577 15.9619C4.33563 15.8738 4.3207 15.7766 4.2657 15.7014C3.1997 14.2449 2.6362 12.5239 2.6362 10.7245C2.6362 6.04286 6.47577 2.234 11.1952 2.234C15.9141 2.234 19.7532 6.04286 19.7532 10.7245C19.7533 15.4056 15.9142 19.2139 11.1953 19.2139Z" fill="white"/>
</g>
<defs>
<clipPath id="clip0_1682_99">
<rect width="22" height="22" fill="white"/>
</clipPath>
</defs>
</svg>
